<?xml version="1.0" encoding="UTF-8" standalone="no"?>
<!-- Generator: Adobe Illustrator 15.1.0, SVG Export Plug-In . SVG Version: 6.00 Build 0) 0 0 87.506 100  -->

<svg
   xmlns:dc="http://purl.org/dc/elements/1.1/"
   xmlns:cc="http://creativecommons.org/ns#"
   xmlns:rdf="http://www.w3.org/1999/02/22-rdf-syntax-ns#"
   xmlns:svg="http://www.w3.org/2000/svg"
   xmlns="http://www.w3.org/2000/svg"
   xmlns:sodipodi="http://sodipodi.sourceforge.net/DTD/sodipodi-0.dtd"
   xmlns:inkscape="http://www.inkscape.org/namespaces/inkscape"
   id="Layer_1"
   enable-background="new 0 0 87.506 100"
   xml:space="preserve"
   viewBox="0 0 87.506 100"
   version="1.1"
   y="0px"
   x="0px"
   inkscape:version="0.91 r13725"
   sodipodi:docname="chrono-noun-project-282.svg"><defs
     id="defs11" /><sodipodi:namedview
     pagecolor="#ffffff"
     bordercolor="#666666"
     borderopacity="1"
     objecttolerance="10"
     gridtolerance="10"
     guidetolerance="10"
     inkscape:pageopacity="0"
     inkscape:pageshadow="2"
     inkscape:window-width="2560"
     inkscape:window-height="1547"
     id="namedview9"
     showgrid="false"
     inkscape:zoom="2.36"
     inkscape:cx="43.752998"
     inkscape:cy="50"
     inkscape:window-x="-8"
     inkscape:window-y="-8"
     inkscape:window-maximized="1"
     inkscape:current-layer="Layer_1" /><path
     d="m43 26c-1.656 0-3 1.343-3 3v28c0 1.657 1.344 3 3 3s3-1.343 3-3v-28c0-1.657-1.344-3-3-3z"
     id="path3"
     style="fill:#cccccc" /><path
     d="m87.506 23.807s-1.414-4.242-4.243-7.07c-2.828-2.829-7.07-4.243-7.07-4.243l-8.988 8.988c-4.797-3.28-10.289-5.606-16.205-6.724v-12.758s-4-2-8-2-8 2-8 2v12.758c-19.898 3.762-35 21.266-35 42.242 0 23.71 19.29 43 43 43s43-19.29 43-43c0-8.971-2.765-17.305-7.482-24.205l8.988-8.988zm-44.506 70.193c-20.402 0-37-16.598-37-37s16.598-37 37-37 37 16.598 37 37-16.598 37-37 37z"
     id="path5"
     style="fill:#cccccc" /><metadata
     id="metadata7"><rdf:RDF><cc:Work><dc:format>image/svg+xml</dc:format><dc:type
           rdf:resource="http://purl.org/dc/dcmitype/StillImage" /><cc:license
           rdf:resource="http://creativecommons.org/licenses/publicdomain/" /><dc:publisher><cc:Agent
             rdf:about="http://openclipart.org/"><dc:title>Openclipart</dc:title></cc:Agent></dc:publisher><dc:title>Cronometro</dc:title><dc:date>2011-12-27T11:22:07</dc:date><dc:description /><dc:source>https://openclipart.org/detail/166607/cronometro-by-mrtossum</dc:source><dc:creator><cc:Agent><dc:title>MrTossum</dc:title></cc:Agent></dc:creator><dc:subject><rdf:Bag><rdf:li>time</rdf:li><rdf:li>icon</rdf:li><rdf:li>timer</rdf:li><rdf:li>schedule</rdf:li><rdf:li>stopwatch</rdf:li><rdf:li>interface</rdf:li><rdf:li>GUI</rdf:li></rdf:Bag></dc:subject></cc:Work><cc:License
         rdf:about="http://creativecommons.org/licenses/publicdomain/"><cc:permits
           rdf:resource="http://creativecommons.org/ns#Reproduction" /><cc:permits
           rdf:resource="http://creativecommons.org/ns#Distribution" /><cc:permits
           rdf:resource="http://creativecommons.org/ns#DerivativeWorks" /></cc:License></rdf:RDF></metadata></svg>