<?xml version="1.0" encoding="UTF-8" standalone="no"?>
<!-- Created with Inkscape (http://www.inkscape.org/) -->

<svg
   xmlns:dc="http://purl.org/dc/elements/1.1/"
   xmlns:cc="http://creativecommons.org/ns#"
   xmlns:rdf="http://www.w3.org/1999/02/22-rdf-syntax-ns#"
   xmlns:svg="http://www.w3.org/2000/svg"
   xmlns="http://www.w3.org/2000/svg"
   xmlns:sodipodi="http://sodipodi.sourceforge.net/DTD/sodipodi-0.dtd"
   xmlns:inkscape="http://www.inkscape.org/namespaces/inkscape"
   width="614.06085"
   height="614.06085"
   id="svg3944"
   version="1.1"
   inkscape:version="0.91 r13725"
   sodipodi:docname="Groovy-logo.svg">
  <defs
     id="defs3946" />
  <sodipodi:namedview
     id="base"
     pagecolor="#ffffff"
     bordercolor="#666666"
     borderopacity="1.0"
     inkscape:pageopacity="0.0"
     inkscape:pageshadow="2"
     inkscape:zoom="1.2316035"
     inkscape:cx="288.36242"
     inkscape:cy="312.27572"
     inkscape:document-units="px"
     inkscape:current-layer="layer1"
     showgrid="false"
     inkscape:window-width="2560"
     inkscape:window-height="1547"
     inkscape:window-x="-8"
     inkscape:window-y="-8"
     inkscape:window-maximized="1"
     fit-margin-top="0"
     fit-margin-left="0"
     fit-margin-right="0"
     fit-margin-bottom="0" />
  <metadata
     id="metadata3949">
    <rdf:RDF>
      <cc:Work
         rdf:about="">
        <dc:format>image/svg+xml</dc:format>
        <dc:type
           rdf:resource="http://purl.org/dc/dcmitype/StillImage" />
        <dc:title></dc:title>
      </cc:Work>
    </rdf:RDF>
  </metadata>
  <g
     inkscape:label="Ebene 1"
     inkscape:groupmode="layer"
     id="layer1"
     transform="translate(-35.396599,279.90405)">
    <path
       inkscape:connector-curvature="0"
       id="path4019"
       d="M 154.97687,331.20258 C 154.97687,329.57772 165.8081,293.656 179.04627,251.37656 192.28446,209.09711 201.70684,173.50655 199.98494,172.28648 198.26303,171.06643 192.30502,173.26572 186.74492,177.17379 169.99968,188.94368 166.55887,185.82395 154.05184,147.53137 140.51919,106.09873 140.0346,101.82267 147.09026,86.102932 151.69902,75.83491 151.42185,73.441366 143.85836,58.191261 139.30827,49.01699 135.58547,38.748102 135.58547,35.371501 135.58547,29.692066 104.59402,3.9390637 55.595974,-31.097451 44.486314,-39.04153 35.396599,-46.883463 35.396599,-48.523968 35.396599,-50.164533 58.867337,-50.549844 87.55379,-49.380262 L 139.711,-47.253773 144.80227,-63.444513 C 166.31871,-131.86879 198.81179,-193.67236 213.26932,-193.67236 216.27992,-193.67236 222.39073,-187.88729 226.84885,-180.81667 234.10831,-169.30315 235.10535,-162.16886 236.39879,-112.48102 237.19309,-81.967018 238.82301,-55.025117 240.02077,-52.610058 241.21852,-50.19504 245.01846,-53.364651 248.46508,-59.653707 252.86648,-67.685009 257.49992,-69.862389 264.03269,-66.969371 270.80025,-63.972354 274.65979,-66.023837 278.20207,-74.50104 283.51567,-87.217025 310.10803,-173.17208 310.10803,-177.63117 310.10803,-179.14659 315.37312,-197.30462 321.80826,-217.98237 328.24335,-238.6601 335.6549,-262.50307 338.27833,-270.96671 342.94391,-286.01863 343.67493,-284.23732 371.70525,-189.51159 400.64646,-91.707621 416.22292,-55.617459 424.02095,-68.297675 429.46295,-77.146901 458.0215,-77.649056 466.00341,-69.035916 470.54006,-64.140532 473.42257,-64.20471 475.92825,-69.256941 481.12832,-79.741712 493.57807,-77.915588 496.83237,-66.190624 499.3963,-56.953123 500.05021,-56.953123 503.85251,-66.190624 506.15857,-71.793198 512.9887,-76.377026 519.03054,-76.377026 527.56938,-76.377026 530.8239,-72.800813 533.64457,-60.318635 L 537.27338,-44.260265 593.36541,-48.264191 C 624.21603,-50.466411 649.45745,-50.8589 649.45745,-49.136332 649.45745,-47.413886 626.55137,-28.828473 598.55504,-7.8354606 570.55872,13.157471 547.18804,30.963895 546.6202,31.734254 546.05235,32.504614 547.31867,50.874246 549.43425,72.555594 554.93882,128.9694 551.34883,166.56639 537.50796,197.45608 531.29896,211.31322 521.22458,225.97423 515.12043,230.03611 509.01628,234.09798 504.02199,238.87979 504.02199,240.66228 504.02199,242.44479 510.53724,264.21026 518.50034,289.02997 526.46343,313.84974 531.78314,334.15681 530.32186,334.15681 527.93682,334.15681 469.85199,288.90671 379.53288,216.68699 361.72388,202.44686 345.50605,190.79578 343.49327,190.79578 339.73964,190.79578 307.32637,215.56903 212.26904,291.08963 157.14379,334.88529 154.97687,336.40244 154.97687,331.20252 Z M 268.09335,227.86294 C 297.42284,204.88732 326.50992,182.43457 332.73133,177.96796 343.43201,170.28556 347.01051,172.21163 398.98527,213.62856 429.20352,237.70845 459.01779,261.16409 465.23919,265.75207 471.4606,270.34015 484.28236,280.31079 493.73194,287.90912 504.50697,296.57315 510.01445,298.65923 508.50302,293.50397 491.61932,235.91677 491.10322,234.95696 479.40219,239.38291 465.28858,244.72146 456.52322,239.24479 452.0185,222.27369 449.09738,211.26852 449.98906,205.88621 457.27292,190.557 468.12179,167.72513 466.41749,146.7202 452.42863,130.85299 447.06099,124.76466 440.28804,109.71489 437.37761,97.409034 L 432.08592,75.034751 420.74041,90.558646 C 406.79583,109.63877 389.78979,110.62189 375.59277,93.168679 L 365.12789,80.303509 352.96948,96.963699 C 340.79486,113.64611 326.7784,115.80139 312.53196,103.18174 308.60698,99.70489 306.87613,101.05628 306.87613,107.59755 306.87613,112.78176 303.17184,120.42643 298.64432,124.58577 285.07012,137.05604 271.82325,133.74466 262.84203,115.63602 L 254.65259,99.123819 248.04277,116.06667 C 244.40738,125.38523 235.99325,139.93332 229.34472,148.39565 221.11507,158.87058 210.92731,184.43022 197.42832,228.46936 186.52283,264.04752 177.60016,294.96708 177.60016,297.17963 177.60016,299.39209 185.96271,294.10004 196.18358,285.4195 206.40447,276.73899 238.76386,250.83856 268.09335,227.86294 Z M 516.86064,203.14647 C 539.11621,177.92619 544.27488,131.27 534.43749,44.17663 526.21609,-28.61025 522.11199,-52.429883 517.24255,-55.621048 513.87353,-57.828934 513.35581,-55.405327 515.25397,-46.313199 527.56913,12.678504 528.2536,42.295443 517.49419,50.620235 510.10268,56.339248 502.2618,34.91191 496.09517,-7.8584259 491.32005,-40.977561 486.32656,-55.903065 482.5613,-48.31125 481.65973,-46.493374 483.23978,-35.969265 486.07254,-24.92417 488.90527,-13.879196 492.78975,19.38265 494.70471,48.991001 496.61968,78.59929 500.31856,109.60181 502.92444,117.88548 509.69642,139.4125 520.47572,134.22459 527.44826,106.0825 534.34199,78.258357 535.1211,96.791872 528.41756,129.14071 521.45682,162.73064 500.78314,172.80284 476.83338,154.27245 473.00008,151.30658 471.70299,154.37629 471.70299,166.41241 471.70299,175.27257 468.76681,190.04814 465.17811,199.24691 L 458.65323,215.97206 467.60204,219.01912 C 483.05149,224.27977 504.23532,217.45364 516.86064,203.14647 Z M 196.49414,147.62353 C 242.95379,120.69714 251.25602,89.29071 235.82299,-1.1532906 232.24114,-22.144347 229.31056,-44.724492 229.31056,-51.331495 229.31056,-73.827361 223.69904,-63.432415 219.49343,-33.145809 213.9314,6.9088005 197.20228,40.953508 183.14827,40.81864 170.9428,40.701292 166.96576,36.221362 161.92449,16.91025 152.87701,-17.747205 162.73918,-70.934928 187.89403,-123.14597 206.31834,-161.38732 216.38296,-164.85061 216.38296,-132.94921 216.38296,-83.201162 199.37162,-9.9668889 190.40987,-21.134372 186.02782,-26.594979 186.73849,-50.708183 191.82709,-69.222805 196.15444,-84.967564 195.27523,-108.95905 190.37089,-108.95905 184.684,-108.95905 173.42542,-67.197957 171.93771,-40.585536 170.62256,-17.05907 171.44485,-11.338504 177.00423,-5.3395291 196.48667,15.683606 222.00954,-48.478723 223.29506,-121.71076 223.9701,-160.16761 220.2783,-170.99085 208.516,-165.03848 191.39721,-156.37545 145.28117,-36.426819 145.28117,-0.56362982 145.28117,27.488455 152.26854,47.216695 164.56944,53.895257 185.48363,65.250172 205.70483,45.076274 220.03274,-1.4382512 L 226.05449,-20.987506 226.06769,5.5713826 C 226.08389,44.029483 213.6415,64.300344 174.36952,89.787178 164.59303,96.132004 156.1862,101.99455 155.68772,102.8151 153.86716,105.81194 172.37511,158.21379 175.25416,158.21379 176.88678,158.21379 186.44531,153.44813 196.49539,147.62353 Z M 476.411,99.877706 C 481.07447,89.487619 481.89651,78.200631 480.89679,38.283955 479.8094,-5.1332033 478.61933,-12.805548 470.23536,-30.449964 455.08654,-62.331244 436.37413,-54.198261 447.32717,-20.493297 453.14973,-2.5758962 460.25257,-5.6360632 457.74358,-24.98115 455.74494,-40.391086 459.47356,-40.795995 465.97197,-25.874805 478.16498,2.1219731 475.08731,40.918425 460.67337,40.918425 450.80621,40.918425 447.73142,32.386017 441.29984,-12.841981 438.36925,-33.450106 434.8002,-50.311359 433.36857,-50.311359 428.59958,-50.311359 426.4757,-41.825285 429.44136,-34.619871 431.05224,-30.706071 435.51354,-2.5786384 439.3554,27.885601 449.02443,104.55654 462.53206,130.7994 476.411,99.877706 Z M 292.63975,101.09544 C 294.62953,98.403705 295.5395,85.673061 294.7184,72.014647 293.39391,49.982727 292.65178,48.375592 286.7457,54.748706 278.25837,63.90719 269.13731,46.555537 266.04348,15.365538 263.69641,-8.2962609 262.97822,-7.8315288 280.06924,6.2892787 282.21212,8.0597328 287.66595,2.0469876 292.18887,-7.0724804 300.46295,-23.755333 303.18689,-43.794947 297.18043,-43.794947 295.40289,-43.794947 293.94853,-40.862553 293.94853,-37.278535 293.94853,-27.904391 285.10622,-29.233946 283.11388,-38.907629 281.95164,-44.550769 279.47581,-42.548847 275.05473,-32.391217 271.54488,-24.32715 267.258,-17.729281 265.52832,-17.729281 263.79863,-17.729281 261.46272,-24.32715 260.33744,-32.391217 258.36549,-46.522428 258.12378,-46.611568 253.66007,-34.854485 249.74947,-24.554243 249.7145,-21.273173 253.43546,-13.771043 257.37608,-5.8256136 264.86161,48.473543 264.86161,69.11302 264.86161,94.777569 282.39094,114.95982 292.63991,101.09544 Z M 351.58284,67.070106 C 363.72851,42.581049 367.32736,5.873159 360.71227,-26.048851 355.54211,-50.998224 346.56761,-60.335996 333.91349,-53.932334 324.51086,-49.174097 310.19038,6.1055756 310.13962,37.839325 310.06042,87.296669 333.39015,103.75158 351.58284,67.070106 Z M 329.49943,27.885601 C 325.94433,20.717528 323.08188,6.7887109 323.13841,-3.0673642 323.23181,-19.358192 323.63156,-19.950675 327.5346,-9.5837761 332.35924,3.2310675 340.93257,5.4509301 344.21701,-5.2642613 345.41133,-9.1605389 344.76996,-15.611845 342.79181,-19.600347 337.71049,-29.845705 338.3262,-43.794947 343.85973,-43.794947 350.0111,-43.794947 358.58652,-18.561681 358.58652,-0.46126331 358.58652,12.859767 345.14212,40.918425 338.75928,40.918425 337.22143,40.918425 333.05452,35.053634 329.49943,27.885601 Z M 415.8484,65.354938 C 429.25914,35.911964 427.95216,-9.4449753 412.75015,-42.165835 404.89958,-59.063462 387.45717,-61.976823 380.3183,-47.58285 373.73069,-34.300391 367.15365,17.93216 369.59708,37.561401 374.8083,79.425763 401.99749,95.764356 415.8484,65.354938 Z M 388.39275,17.74148 C 383.08652,10.247698 381.26334,1.309332 381.41469,-16.469671 381.58404,-36.350846 382.09899,-38.144286 384.37614,-26.781223 387.72187,-10.085789 394.73906,-3.7808447 400.89428,-11.939596 404.71181,-16.99971 404.53357,-19.391703 399.79324,-26.717045 393.47135,-36.48638 392.23816,-50.311359 397.68859,-50.311359 402.56223,-50.311359 419.99261,-11.867656 419.99261,-1.1186308 419.99261,9.3723909 407.61522,27.885601 400.60122,27.885601 397.83717,27.885601 392.34332,23.320706 388.39275,17.74148 Z M 578.35567,-11.068866 612.29062,-36.749848 575.93174,-37.014484 C 543.39254,-37.251115 539.5775,-36.080806 539.61699,-25.875047 539.65709,-15.536436 542.94772,15.023053 543.98969,14.732144 544.22691,14.665809 559.69146,3.0553892 578.35567,-11.069128 Z M 134.86224,-15.66457 138.33049,-36.407261 107.86363,-38.472011 C 91.106886,-39.60762 77.400046,-38.738422 77.40405,-36.540336 77.40985,-33.324109 129.91062,8.0336825 131.06579,5.7319994 131.24614,5.3722952 132.95471,-4.2560816 134.86224,-15.66457 Z M 343.77144,-79.957554 C 350.93811,-77.646898 359.02125,-71.732669 361.734,-66.814743 365.94679,-59.177421 367.77928,-59.697964 374.29607,-70.383254 378.4925,-77.263805 383.94633,-82.893397 386.4157,-82.893397 388.88509,-82.893397 390.90552,-84.331165 390.90552,-86.088534 390.90552,-92.15588 344.36598,-245.80306 342.59105,-245.59557 340.50605,-245.35186 292.80502,-84.115868 291.33641,-72.348078 290.72007,-67.409162 292.65445,-65.586063 296.41005,-67.56627 299.74841,-69.326482 304.36421,-66.188628 306.66732,-60.593252 310.40272,-51.518244 311.9284,-52.241241 320.798,-67.289254 329.22447,-81.585498 332.7288,-83.517879 343.77144,-79.957554 Z"
       style="fill:#333333;fill-opacity:1;stroke:#ffffff" />
    <path
       style="fill:#6398aa;fill-opacity:1;stroke:none"
       d="M 309.54579,-55.544712 C 309.04504,-56.014726 308.42775,-57.093194 307.01799,-59.961068 305.10611,-63.85041 304.34611,-64.981864 302.75691,-66.304847 300.669,-68.042959 298.40201,-68.511119 296.2746,-67.643474 294.37652,-66.869364 293.85025,-66.786011 292.99218,-67.123677 291.55994,-67.687288 291.05061,-69.440967 291.45635,-72.411812 291.96208,-76.114849 295.79328,-90.442487 303.46534,-117.32214 319.04904,-171.92094 340.00158,-240.76069 342.3159,-244.96603 342.57221,-245.43178 342.5809,-245.43178 342.83838,-244.96603 344.21606,-242.47396 352.31458,-217.29081 363.37874,-181.09375 378.3457,-132.1284 390.78976,-89.063291 390.78976,-86.232456 390.78976,-84.50392 389.47368,-83.465819 386.70385,-83.009535 383.26159,-82.442476 379.27907,-78.368303 373.83498,-69.844524 371.24786,-65.79386 370.14372,-64.280946 368.88436,-63.060996 367.83508,-62.044569 367.74744,-62.00372 366.61582,-62.00372 365.50214,-62.00372 365.38921,-62.053925 364.51959,-62.933789 364.00746,-63.452014 363.0149,-64.847843 362.27804,-66.08608 360.09956,-69.746856 357.47886,-72.409412 353.20607,-75.302974 347.7761,-78.980183 341.96153,-81.187282 337.01056,-81.450528 333.10122,-81.658366 331.29855,-80.950531 328.33454,-78.043763 325.91466,-75.670643 324.74833,-73.984772 319.20979,-64.854375 313.57603,-55.567052 311.57537,-53.639732 309.54579,-55.544712 Z"
       id="path4567"
       inkscape:connector-curvature="0" />
    <path
       style="fill:#6398aa;fill-opacity:1;stroke:none"
       d="M 128.63786,4.6609318 C 118.47886,-1.308665 83.134689,-29.45374 78.186936,-35.513888 77.50402,-36.350322 77.448838,-36.477408 77.643729,-36.764748 78.775292,-38.433037 89.981712,-39.262937 102.64776,-38.616418 107.69907,-38.358576 138.14908,-36.33151 138.19866,-36.24977 138.29836,-36.085443 131.67702,2.6418302 131.16815,4.870887 130.95564,5.801803 130.51752,5.7654494 128.63786,4.6609318 Z"
       id="path4571"
       inkscape:connector-curvature="0" />
    <path
       style="fill:#6398aa;fill-opacity:1;stroke:none"
       d="M 543.69413,13.878451 C 542.30793,8.4085491 539.80644,-16.306594 539.73335,-25.254658 539.70495,-28.731207 539.92002,-30.148994 540.69395,-31.587387 542.46773,-34.884024 546.07333,-36.069978 555.98412,-36.616672 560.98759,-36.89268 584.08602,-36.935164 600.39539,-36.698331 L 611.82398,-36.532391 584.30628,-15.735947 C 559.21336,3.2279625 544.62155,14.188172 544.08137,14.47779 543.9462,14.550376 543.81156,14.341894 543.69413,13.878492 L 543.69413,13.878492 Z"
       id="path4573"
       inkscape:connector-curvature="0" />
    <path
       style="fill:#6398aa;fill-opacity:1;stroke:none"
       d="M 178.08835,296.56837 C 178.08835,295.01426 181.35725,283.39582 189.6423,255.50286 209.49348,188.67065 218.56945,164.44746 229.71522,148.55078 239.68649,134.32921 245.01801,124.49778 250.96061,109.37382 L 254.6247,100.04869 259.5646,109.84079 C 268.21244,126.98297 273.4259,131.95267 282.86177,132.04873 294.40235,132.16627 307.04026,119.16853 307.04026,107.18198 307.04026,104.48057 307.9943,101.69294 308.91883,101.69294 309.31015,101.69294 311.53569,103.07137 313.86448,104.75613 319.9344,109.14739 323.49476,110.73537 328.4736,111.27204 333.41358,111.80452 337.02208,110.92846 341.83177,108.02904 346.55738,105.18028 349.27886,102.2644 357.4301,91.316465 361.5377,85.799562 365.02964,81.285739 365.18998,81.285739 365.35031,81.285739 368.31532,84.751642 371.77888,88.987743 375.24244,93.223845 379.4043,97.821726 381.02747,99.205257 392.09609,108.63979 404.05192,108.02426 414.99873,97.456316 416.95668,95.566115 421.56666,89.934104 425.24313,84.940728 428.91961,79.947354 431.97926,75.976836 432.04236,76.117371 432.10546,76.257906 433.49841,82.006518 435.1378,88.89207 436.7772,95.777622 438.83675,103.54377 439.71459,106.15015 443.5146,117.43281 447.89047,125.81171 453.79802,133.11715 459.87924,140.63737 463.63008,150.63216 464.01684,160.34714 464.40051,169.98431 462.31355,178.53274 456.29495,191.97693 451.59748,202.47003 450.42165,206.56551 450.43382,212.39157 450.44602,218.2239 452.13485,224.95004 455.10346,230.9893 459.90879,240.76512 467.44951,243.66721 478.5388,240.0085 481.01288,239.19223 484.13359,238.52135 485.47371,238.51771 489.75922,238.50561 492.3769,242.74372 497.36622,257.77033 500.80973,268.14136 508.34018,293.56952 508.34018,294.82623 508.34018,295.47964 507.98873,295.93937 507.48921,295.93937 506.43812,295.93937 501.86607,293.43153 498.55707,291.03994 494.20857,287.89706 441.28469,246.67119 423.80921,232.81393 377.14571,195.81195 361.78116,183.99487 354.27264,179.33236 346.15847,174.29378 340.63235,173.11169 336.14603,175.45493 330.56607,178.36939 254.42536,237.69521 210.01358,273.7323 188.08239,291.52797 185.33609,293.64461 181.23242,295.91457 177.96939,297.71956 178.08835,297.69482 178.08835,296.56837 Z"
       id="path4575"
       inkscape:connector-curvature="0" />
    <path
       style="fill:#ffffff;fill-opacity:1;fill-rule:nonzero;stroke:none;stroke-width:16.60000038;stroke-linecap:round;stroke-linejoin:bevel;stroke-miterlimit:4;stroke-dasharray:none;stroke-opacity:1"
       d="M 212.72745,-166.03768 C 204.45797,-163.70506 200.27845,-154.75559 195.9794,-148.00669 177.65384,-113.77738 164.28283,-77.03155 153.05692,-39.9881 153.04129,-36.88039 150.74004,-34.55409 151.03196,-31.64416 149.69122,-30.40609 150.81521,-28.36802 149.35573,-27.11658 149.68534,-24.00865 147.45543,-20.84739 147.56518,-17.52493 143.79263,0.22969 145.20934,19.18318 151.36182,36.22341 155.64667,47.46346 166.41889,58.31065 179.38518,56.01786 194.87437,52.41918 203.33788,36.99593 209.83186,23.78454 215.18271,14.04047 217.60685,2.5306 221.8143,-7.35544 221.60728,-11.16791 224.48206,-14.98835 224.92255,-18.35958 226.83565,-14.26602 225.45277,-8.72686 225.95567,-4.13461 225.90599,13.39767 226.49618,31.87074 218.04159,47.80321 205.22675,73.00506 178.90582,86.23317 157.16282,102.42744 154.62333,106.39947 158.40974,111.42969 158.94579,115.6033 161.7746,127.78678 167.30833,139.14254 171.26092,150.90178 170.90623,151.93414 173.88161,153.7238 173.98698,155.3675 175.69882,160.05469 180.24796,154.80446 183.04109,154.26509 204.90453,143.46367 227.16037,128.66192 236.27182,104.916 237.79249,102.02386 238.09907,98.49834 239.60266,95.87475 239.60854,92.53786 241.3065,88.96807 241.32171,85.40029 245.64398,52.64673 238.61931,19.86999 233.7747,-12.42061 230.92223,-28.40528 229.68892,-44.61864 228.17035,-60.74113 226.99759,-64.70527 225.35504,-58.61119 224.7592,-57.42197 219.1884,-37.88411 218.71229,-17.11429 211.73362,2.12068 210.85562,5.94838 208.46718,8.7175 207.89539,12.41997 202.5347,22.69371 197.95552,35.45589 186.63405,40.48774 181.90712,41.6339 176.22481,41.08583 172.01103,38.69098 165.92463,32.85539 163.01601,24.19879 161.65233,16.25928 157.82267,2.57153 158.07105,-12.32469 159.19538,-26.51248 162.77362,-66.04782 176.65644,-104.14687 195.67489,-138.77434 199.6955,-144.56337 202.88203,-152.63242 209.95223,-155.12393 216.45769,-153.71958 215.73403,-144.82825 215.93709,-139.69251 216.83457,-116.47272 214.4064,-93.32762 210.49506,-70.46904 209.2169,-62.66621 206.9765,-55.26818 205.49515,-47.54124 202.63362,-38.09773 200.47131,-27.58185 193.84169,-20.01202 188.37599,-18.95356 187.84426,-26.83135 187.91699,-30.67362 187.836,-41.88063 187.43367,-53.34135 190.39725,-64.20302 189.91136,-66.70253 192.2683,-68.10188 191.56759,-70.4211 194.651,-80.02579 194.02994,-90.56209 193.61016,-100.55204 193.3858,-102.72734 192.48764,-109.37975 189.12064,-107.21891 184.38166,-100.56398 182.13625,-92.33262 179.95132,-84.57947 174.22701,-62.12555 169.91559,-38.72626 172.3739,-15.48993 171.83965,-12.2678 174.26906,-11.02924 175.34922,-8.45126 178.50506,-4.47331 184.33856,1.27058 189.43147,-3.329 201.63482,-11.88197 205.9965,-27.27375 210.81492,-40.61684 220.4901,-71.84576 223.65323,-104.89276 223.11576,-137.50394 222.54486,-145.33022 222.47015,-153.8575 220.10953,-161.15805 218.22896,-163.37779 215.96416,-166.21345 212.72745,-166.03768 Z"
       id="path4186"
       inkscape:connector-curvature="0" />
    <path
       style="fill:#ffffff;fill-opacity:1;fill-rule:nonzero;stroke:none;stroke-width:16.60000038;stroke-linecap:round;stroke-linejoin:bevel;stroke-miterlimit:4;stroke-dasharray:none;stroke-opacity:1"
       d="M 297.14483,-43.06061 C 293.16822,-40.93259 294.38959,-36.00648 293.21671,-32.56077 289.37811,-28.03698 282.67163,-33.69144 282.91351,-38.57427 282.79482,-41.0262 280.32614,-42.40775 279.58642,-39.21971 274.72992,-32.2284 272.33659,-23.14448 265.90222,-17.45883 262.46162,-17.4802 262.50579,-23.13791 261.27157,-25.63541 259.35473,-30.74991 260.81197,-37.25322 257.76052,-41.73009 255.25514,-41.11382 255.60823,-36.84268 253.95451,-35.77368 252.63983,-29.30132 249.01345,-21.95925 253.2155,-15.63035 258.66545,0.66607 259.96891,18.0393 262.43167,34.98618 265.05626,51.71486 263.56184,69.12955 267.43731,85.53667 271.39903,93.39896 275.54293,104.56365 285.85366,105.06469 294.23041,103.28059 294.56182,93.15951 294.44732,86.28518 294.09936,74.86444 295.50228,62.72939 291.37872,51.88675 289.78837,49.79471 289.96714,54.66189 287.91525,54.45898 284.40131,58.10425 277.5893,58.46519 275.63134,52.97305 272.61939,47.84764 270.14704,41.76385 269.30226,36.15681 265.88295,24.96638 265.55022,12.8651 264.7731,1.19223 264.49671,-0.73169 264.58452,-5.56753 267.74813,-3.50344 273.0692,-1.50337 276.39277,4.36138 281.89382,5.59293 288.03592,1.5001 291.0727,-6.16522 294.10002,-12.70448 297.6364,-20.63015 300.03132,-29.21992 300.46558,-37.8432 299.8586,-39.59204 299.2549,-42.61165 297.14483,-43.06061 Z"
       id="path4188"
       inkscape:connector-curvature="0" />
    <path
       style="fill:#ffffff;fill-opacity:1;fill-rule:nonzero;stroke:none;stroke-width:16.60000038;stroke-linecap:round;stroke-linejoin:bevel;stroke-miterlimit:4;stroke-dasharray:none;stroke-opacity:1"
       d="M 340.48106,-55.46822 C 330.78782,-54.99247 328.38675,-43.88944 324.58302,-36.87108 316.25251,-11.65713 310.41992,14.75316 310.33136,41.45324 311.09562,55.9921 312.74223,72.46907 323.49355,83.33552 328.94106,88.71108 337.43016,86.16056 341.60859,80.54127 354.27165,66.28004 359.60726,47.03035 362.28476,28.5321 364.69649,6.13336 364.18223,-17.20085 356.83899,-38.65039 353.49384,-45.67408 349.90456,-55.6756 340.48106,-55.46822 Z M 343.97466,-43.87891 C 349.67745,-43.12053 350.36292,-35.84569 352.89977,-31.77102 354.26116,-28.23553 355.32656,-24.18875 356.0096,-20.78592 357.92267,-15.37654 358.01449,-9.02965 358.73202,-3.22748 358.76057,11.8372 352.37935,26.54716 343.26579,38.32306 341.41237,40.73339 337.70074,42.93262 335.80601,39.17942 325.62963,26.15246 322.77751,9.18999 323.30806,-6.95559 323.86427,-10.04037 322.04226,-14.75879 324.2944,-17.01638 328.56324,-11.39717 329.37497,-1.77785 337.02869,0.75612 344.33019,0.18945 345.2824,-9.95767 343.72251,-15.55582 340.32433,-23.86101 337.41817,-33.68714 340.91241,-42.39615 341.55717,-43.42561 342.77296,-43.98922 343.97466,-43.87891 Z"
       id="path4190"
       inkscape:connector-curvature="0" />
    <path
       style="fill:#ffffff;fill-opacity:1;fill-rule:nonzero;stroke:none;stroke-width:16.60000038;stroke-linecap:round;stroke-linejoin:bevel;stroke-miterlimit:4;stroke-dasharray:none;stroke-opacity:1"
       d="M 392.73763,-55.99789 C 382.91371,-55.62012 378.95742,-44.28877 377.02831,-36.30811 372.49666,-17.2383 370.13229,2.44493 369.67219,22.04443 369.39387,40.89736 372.50498,61.92698 386.65991,75.62591 391.96568,81.3245 401.46434,82.49032 407.09899,76.59887 412.46938,72.09189 414.97276,64.73553 418.41871,59.25772 417.49395,58.60104 419.68678,57.15719 418.94679,56.25732 421.04302,53.50648 420.18092,49.50396 421.72835,46.24909 425.29109,30.53172 424.53359,14.18711 423.55903,-1.77551 422.35559,-12.06493 419.87766,-22.24818 416.54955,-32.01348 413.13397,-40.98161 408.74565,-50.31015 400.01187,-55.19228 398.06765,-56.31438 394.98387,-55.77803 392.73763,-55.99789 Z M 397.71241,-50.32217 C 404.47368,-46.22876 406.80962,-37.56249 410.44987,-30.91784 413.01039,-24.30528 417.28426,-17.43556 417.9715,-10.56994 420.94776,-5.07846 420.15672,2.24636 418.35052,8.08428 414.54378,15.90097 409.84762,25.06352 401.22345,28.24347 393.74021,26.96651 389.08701,19.33911 385.31432,13.3017 379.85708,1.52856 382.40114,-11.89674 381.69587,-24.47293 382.18365,-27.35402 380.9596,-31.71481 382.61205,-33.89129 384.77155,-30.23439 384.54464,-25.26929 386.26373,-21.2552 386.80361,-16.02751 390.56951,-11.16489 395.12273,-8.81759 398.97244,-9.36073 401.81422,-13.65991 403.17245,-17.03065 401.81,-26.1363 393.09684,-33.32163 394.66474,-43.1843 394.83389,-45.55616 394.03074,-50.42523 397.71241,-50.32217 Z"
       id="path4192"
       inkscape:connector-curvature="0" />
    <path
       style="fill:#ffffff;fill-opacity:1;fill-rule:nonzero;stroke:none;stroke-width:16.60000038;stroke-linecap:round;stroke-linejoin:bevel;stroke-miterlimit:4;stroke-dasharray:none;stroke-opacity:1"
       d="M 451.44064,-49.99232 C 443.20118,-47.52388 443.57344,-36.84864 445.19719,-29.98537 447.0839,-22.64193 448.76613,-13.91672 455.05952,-9.1078 459.16511,-12.85767 457.18008,-19.7789 457.51701,-24.80373 457.96151,-28.73748 455.72187,-34.0335 458.40088,-37.30084 462.25833,-36.25816 463.37669,-31.02711 465.54667,-28.04589 470.57458,-16.02297 473.98462,-2.99045 473.23612,10.24578 472.86265,20.35198 473.84993,32.57839 465.43567,39.8201 459.55372,43.14749 451.81,39.63376 450.07681,33.1342 442.9428,11.81815 442.31851,-11.02438 437.62481,-32.92551 437.09908,-38.2827 435.04109,-43.78878 434.38811,-48.87747 429.70144,-51.05962 428.23357,-43.55551 428.69336,-40.26161 437.34448,-2.26854 439.0924,36.94491 447.40626,75.00036 448.3026,77.62125 447.96563,80.15929 449.34891,82.48868 452.14922,91.94756 454.40876,102.49934 461.24746,110.04581 463.55606,113.59705 467.79508,112.83804 469.71902,109.41306 479.84835,97.40726 481.25244,80.96307 480.59044,65.90557 480.07295,40.43868 481.60936,14.65724 477.09793,-10.52554 473.08237,-24.50999 467.10631,-39.06334 455.78584,-48.68241 454.51128,-49.52202 453.0041,-50.20327 451.44064,-49.99232 Z"
       id="path4194"
       inkscape:connector-curvature="0" />
    <path
       style="fill:#ffffff;fill-opacity:1;fill-rule:nonzero;stroke:none;stroke-width:16.60000038;stroke-linecap:round;stroke-linejoin:bevel;stroke-miterlimit:4;stroke-dasharray:none;stroke-opacity:1"
       d="M 515.48158,-55.72354 C 513.36385,-52.64547 515.76007,-47.97195 515.80192,-44.39113 518.88874,-33.183 519.98194,-21.43142 522.16113,-9.98952 524.37348,7.77619 527.68539,26.48764 522.556,43.96072 521.07048,47.74971 518.44144,53.18419 513.45963,51.18581 507.71167,47.69715 506.47355,39.98961 504.06512,34.17451 503.64798,31.52909 502.39224,28.97324 502.43646,26.49905 500.50666,22.75161 500.69675,17.82675 499.27747,13.71401 495.80884,-4.88262 494.52809,-24.05681 488.73799,-42.09325 487.49442,-44.3725 486.95524,-48.89571 484.10258,-49.38335 480.14735,-45.612 484.17719,-39.91343 484.01219,-35.36136 486.32221,-24.89303 488.87383,-14.47675 489.88311,-3.755 495.29682,35.56677 495.05805,75.55277 502.40792,114.61144 504.58385,120.5414 506.29578,129.08542 513.12026,131.08038 521.51798,126.30351 524.29864,115.87497 526.71725,107.16117 528.38667,102.41935 528.59284,96.01678 532.17729,92.50802 533.92389,99.89439 531.98662,107.96133 531.20676,115.50744 529.77606,122.05436 529.15018,129.62822 526.99001,135.55403 527.23757,136.54231 525.53624,137.59436 526.24942,138.61153 522.8102,148.59288 516.93785,159.75141 505.85078,162.78923 494.56144,165.82274 483.64379,160.21347 474.78419,153.70237 472.53892,153.05355 473.02354,158.03198 472.30211,159.46056 471.01996,169.13441 471.80567,179.07233 468.83253,188.50361 466.72314,196.33888 463.84918,205.27545 460.24363,211.87571 460.15596,213.76528 458.94307,216.58284 462.11809,216.98687 472.49887,221.19237 484.41174,221.35709 494.98936,217.63389 508.32116,212.00045 519.52779,201.80751 525.76223,188.68282 526.904,185.24592 530.22661,183.09219 530.03482,179.5912 531.39897,175.55684 532.54264,171.29705 534.01686,167.45953 539.1721,142.96287 539.99053,117.22608 538.23219,92.1203 535.938,52.5576 530.7992,13.20394 525.23543,-26.01336 523.28723,-35.80801 522.93666,-46.7958 516.8565,-55.09555 516.47391,-55.40125 516.01164,-55.79466 515.48158,-55.72354 Z"
       id="path4196"
       inkscape:connector-curvature="0" />
  </g>
</svg>
