<?xml version="1.0" encoding="UTF-8" standalone="no"?>
<!-- Created with Inkscape (http://www.inkscape.org/) -->

<svg
   xmlns:i="http://ns.adobe.com/AdobeIllustrator/10.0/"
   xmlns:a="http://ns.adobe.com/AdobeSVGViewerExtensions/3.0/"
   xmlns:dc="http://purl.org/dc/elements/1.1/"
   xmlns:cc="http://creativecommons.org/ns#"
   xmlns:rdf="http://www.w3.org/1999/02/22-rdf-syntax-ns#"
   xmlns:svg="http://www.w3.org/2000/svg"
   xmlns="http://www.w3.org/2000/svg"
   xmlns:xlink="http://www.w3.org/1999/xlink"
   xmlns:sodipodi="http://sodipodi.sourceforge.net/DTD/sodipodi-0.dtd"
   xmlns:inkscape="http://www.inkscape.org/namespaces/inkscape"
   id="svg2321"
   xml:space="preserve"
   version="1.0"
   viewBox="0 0 162.456 262.757"
   inkscape:version="0.91 r13725"
   sodipodi:docname="lightbulb.svg"><sodipodi:namedview
     pagecolor="#ffffff"
     bordercolor="#666666"
     borderopacity="1"
     objecttolerance="10"
     gridtolerance="10"
     guidetolerance="10"
     inkscape:pageopacity="0"
     inkscape:pageshadow="2"
     inkscape:window-width="2560"
     inkscape:window-height="1547"
     id="namedview113"
     showgrid="false"
     inkscape:zoom="0.89816831"
     inkscape:cx="81.227997"
     inkscape:cy="131.37849"
     inkscape:window-x="-8"
     inkscape:window-y="-8"
     inkscape:window-maximized="1"
     inkscape:current-layer="svg2321" /><defs
     id="defs2442"><linearGradient
       id="linearGradient2848"
       y2="23.859"
       xlink:href="#linearGradient2842"
       gradientUnits="userSpaceOnUse"
       x2="-.33714"
       y1="22.651"
       x1="-.56686"
       gradientTransform="matrix(20.915,0,0,20.915,90.963,-445.0919)" /><linearGradient
       id="linearGradient2832"
       y2="63.66"
       xlink:href="#linearGradient1364"
       gradientUnits="userSpaceOnUse"
       x2="63.488"
       gradientTransform="translate(48.845159,9.815259)"
       y1="8.6307"
       x1="10.018" /><radialGradient
       id="radialGradient2812"
       xlink:href="#linearGradient2814"
       gradientUnits="userSpaceOnUse"
       cy="14.047"
       cx="18.387"
       gradientTransform="matrix(0.011424,1.0988,-1.844,0.018788,100.999,4.1507)"
       r="27.5" /><linearGradient
       id="linearGradient1346"
       y2="63.66"
       xlink:href="#linearGradient1364"
       gradientUnits="userSpaceOnUse"
       x2="63.488"
       y1="8.6307"
       x1="10.018"
       gradientTransform="translate(48.848,9.8181)" /><radialGradient
       id="radialGradient1343"
       xlink:href="#linearGradient2122"
       gradientUnits="userSpaceOnUse"
       cy="16.362"
       cx="24.764"
       gradientTransform="matrix(0.025214,1.0261,-0.97814,0.024047,87.678,6.2424)"
       r="27.5" /><linearGradient
       id="linearGradient1364"><stop
         id="stop1366"
         style="stop-color:#236b0d"
         offset="0" /><stop
         id="stop1368"
         style="stop-color:#0a2205"
         offset="1" /></linearGradient><linearGradient
       id="linearGradient2122"><stop
         id="stop2124"
         style="stop-color:#2edc32"
         offset="0" /><stop
         id="stop2126"
         style="stop-color:#11661d"
         offset="1" /></linearGradient><linearGradient
       id="linearGradient2814"><stop
         id="stop2816"
         style="stop-color:#e6e6e6"
         offset="0" /><stop
         id="stop2818"
         style="stop-color:#11661d;stop-opacity:0"
         offset="1" /></linearGradient><linearGradient
       id="linearGradient2842"><stop
         id="stop2844"
         style="stop-color:#ffffff"
         offset="0" /><stop
         id="stop2846"
         style="stop-color:#c8c8c8"
         offset="1" /></linearGradient><linearGradient
       inkscape:collect="always"
       xlink:href="#linearGradient1364"
       id="linearGradient4241"
       gradientUnits="userSpaceOnUse"
       x1="10.018"
       y1="8.6307"
       x2="63.488"
       y2="63.66"
       gradientTransform="matrix(2.3119,0,0,2.1927,6.8662,-6.0445)" /><radialGradient
       inkscape:collect="always"
       xlink:href="#linearGradient2122"
       id="radialGradient4243"
       gradientUnits="userSpaceOnUse"
       gradientTransform="matrix(0.05829225,2.2499295,-2.2613619,0.05272786,96.637277,-13.884937)"
       cx="24.764"
       cy="16.362"
       r="27.5" /><radialGradient
       inkscape:collect="always"
       xlink:href="#linearGradient2814"
       id="radialGradient4245"
       gradientUnits="userSpaceOnUse"
       gradientTransform="matrix(0.02641115,2.4093388,-4.2631436,0.04119645,127.4341,-18.471408)"
       cx="18.387"
       cy="14.047"
       r="27.5" /><linearGradient
       inkscape:collect="always"
       xlink:href="#linearGradient1364"
       id="linearGradient4247"
       gradientUnits="userSpaceOnUse"
       gradientTransform="matrix(2.3119,0,0,2.1927,6.8596319,-6.0507295)"
       x1="10.018"
       y1="8.6307"
       x2="63.488"
       y2="63.66" /><linearGradient
       inkscape:collect="always"
       xlink:href="#linearGradient2842"
       id="linearGradient4249"
       gradientUnits="userSpaceOnUse"
       x1="-.56686"
       y1="22.651"
       x2="-.33714"
       y2="23.859"
       gradientTransform="matrix(48.353388,0,0,45.86032,104.23187,-1003.5257)" /><linearGradient
       inkscape:collect="always"
       xlink:href="#linearGradient1364"
       id="linearGradient4257"
       gradientUnits="userSpaceOnUse"
       x1="10.018"
       y1="8.6307"
       x2="63.488"
       y2="63.66"
       gradientTransform="matrix(2.3119,0,0,2.1927,6.8662,-6.0445)" /><radialGradient
       inkscape:collect="always"
       xlink:href="#linearGradient2122"
       id="radialGradient4259"
       gradientUnits="userSpaceOnUse"
       gradientTransform="matrix(0.05829225,2.2499295,-2.2613619,0.05272786,96.637277,-13.884937)"
       cx="24.764"
       cy="16.362"
       r="27.5" /><radialGradient
       inkscape:collect="always"
       xlink:href="#linearGradient2814"
       id="radialGradient4261"
       gradientUnits="userSpaceOnUse"
       gradientTransform="matrix(0.02641115,2.4093388,-4.2631436,0.04119645,127.4341,-18.471408)"
       cx="18.387"
       cy="14.047"
       r="27.5" /><linearGradient
       inkscape:collect="always"
       xlink:href="#linearGradient1364"
       id="linearGradient4263"
       gradientUnits="userSpaceOnUse"
       gradientTransform="matrix(2.3119,0,0,2.1927,6.8596319,-6.0507295)"
       x1="10.018"
       y1="8.6307"
       x2="63.488"
       y2="63.66" /><linearGradient
       inkscape:collect="always"
       xlink:href="#linearGradient2842"
       id="linearGradient4265"
       gradientUnits="userSpaceOnUse"
       x1="-.56686"
       y1="22.651"
       x2="-.33714"
       y2="23.859"
       gradientTransform="matrix(48.353388,0,0,45.86032,104.23187,-1003.5257)" /><linearGradient
       inkscape:collect="always"
       xlink:href="#linearGradient1364"
       id="linearGradient4273"
       gradientUnits="userSpaceOnUse"
       x1="10.018"
       y1="8.6307"
       x2="63.488"
       y2="63.66"
       gradientTransform="translate(48.848,9.8181)" /><radialGradient
       inkscape:collect="always"
       xlink:href="#linearGradient2122"
       id="radialGradient4275"
       gradientUnits="userSpaceOnUse"
       gradientTransform="matrix(0.025214,1.0261,-0.97814,0.024047,87.678,6.2424)"
       cx="24.764"
       cy="16.362"
       r="27.5" /><radialGradient
       inkscape:collect="always"
       xlink:href="#linearGradient2814"
       id="radialGradient4277"
       gradientUnits="userSpaceOnUse"
       gradientTransform="matrix(0.011424,1.0988,-1.844,0.018788,100.999,4.1507)"
       cx="18.387"
       cy="14.047"
       r="27.5" /><linearGradient
       inkscape:collect="always"
       xlink:href="#linearGradient1364"
       id="linearGradient4279"
       gradientUnits="userSpaceOnUse"
       gradientTransform="translate(48.845159,9.815259)"
       x1="10.018"
       y1="8.6307"
       x2="63.488"
       y2="63.66" /><linearGradient
       inkscape:collect="always"
       xlink:href="#linearGradient2842"
       id="linearGradient4281"
       gradientUnits="userSpaceOnUse"
       x1="-.56686"
       y1="22.651"
       x2="-.33714"
       y2="23.859"
       gradientTransform="matrix(20.915,0,0,20.915,90.963,-445.0919)" /><radialGradient
       r="11.44"
       cx="81.863"
       cy="255.78"
       gradientUnits="userSpaceOnUse"
       id="XMLID_10_"><stop
         offset="0"
         style="stop-color:#cfcfcf"
         id="stop2329" /><stop
         offset="1"
         style="stop-color:#a8a8a8"
         id="stop2331" /><a:midPointStop
         offset="0"
         style="stop-color:#CFCFCF" /><a:midPointStop
         offset="0.5"
         style="stop-color:#CFCFCF" /><a:midPointStop
         offset="1"
         style="stop-color:#A8A8A8" /></radialGradient><radialGradient
       r="92.666"
       cx="81.228"
       cy="102.84"
       gradientUnits="userSpaceOnUse"
       id="XMLID_11_"><stop
         offset="0"
         style="stop-color:#ffffff"
         id="stop2336" /><stop
         offset="1"
         style="stop-color:#cdcdcd"
         id="stop2338" /><a:midPointStop
         offset="0"
         style="stop-color:#FFFFFF" /><a:midPointStop
         offset="0.5"
         style="stop-color:#FFFFFF" /><a:midPointStop
         offset="1"
         style="stop-color:#CDCDCD" /></radialGradient><radialGradient
       r="0"
       cx="93.032"
       cy="205.68"
       gradientUnits="userSpaceOnUse"
       id="XMLID_12_"><stop
         offset=".33150"
         style="stop-color:#ffffff"
         id="stop2349" /><stop
         offset="1"
         style="stop-color:#5f5f5f"
         id="stop2351" /><a:midPointStop
         offset="0.3315"
         style="stop-color:#FFFFFF" /><a:midPointStop
         offset="0.5"
         style="stop-color:#FFFFFF" /><a:midPointStop
         offset="1"
         style="stop-color:#5F5F5F" /></radialGradient><radialGradient
       r="24.964"
       gradientTransform="matrix(0.9984,0.0565,-0.0565,0.9984,14.908,-3.2114)"
       cx="135.65"
       cy="84.56"
       gradientUnits="userSpaceOnUse"
       id="XMLID_18_"><stop
         offset="0"
         style="stop-color:#cfcfcf"
         id="stop2435" /><stop
         offset="1"
         style="stop-color:#a8a8a8"
         id="stop2437" /><a:midPointStop
         offset="0"
         style="stop-color:#CFCFCF" /><a:midPointStop
         offset="0.5"
         style="stop-color:#CFCFCF" /><a:midPointStop
         offset="1"
         style="stop-color:#A8A8A8" /></radialGradient><radialGradient
       r="20.899"
       cx="81.227997"
       cy="210.36"
       gradientUnits="userSpaceOnUse"
       id="XMLID_13_"><stop
         offset="0"
         style="stop-color:#ffffff"
         id="stop2374" /><stop
         offset="1"
         style="stop-color:#818181"
         id="stop2376" /><a:midPointStop
         offset="0"
         style="stop-color:#FFFFFF" /><a:midPointStop
         offset="0.5"
         style="stop-color:#FFFFFF" /><a:midPointStop
         offset="1"
         style="stop-color:#818181" /></radialGradient><radialGradient
       r="21.209"
       cx="80.594002"
       cy="228.44"
       gradientUnits="userSpaceOnUse"
       id="XMLID_15_"><stop
         offset=".33150"
         style="stop-color:#ffffff"
         id="stop2400" /><stop
         offset="1"
         style="stop-color:#a1a1a1"
         id="stop2402" /><a:midPointStop
         offset="0.3315"
         style="stop-color:#FFFFFF" /><a:midPointStop
         offset="0.5"
         style="stop-color:#FFFFFF" /><a:midPointStop
         offset="1"
         style="stop-color:#A1A1A1" /></radialGradient><radialGradient
       r="21.209"
       cx="80.594002"
       cy="219.56"
       gradientUnits="userSpaceOnUse"
       id="XMLID_14_"><stop
         offset=".33150"
         style="stop-color:#ffffff"
         id="stop2389" /><stop
         offset="1"
         style="stop-color:#a1a1a1"
         id="stop2391" /><a:midPointStop
         offset="0.3315"
         style="stop-color:#FFFFFF" /><a:midPointStop
         offset="0.5"
         style="stop-color:#FFFFFF" /><a:midPointStop
         offset="1"
         style="stop-color:#A1A1A1" /></radialGradient><radialGradient
       r="21.209"
       cx="80.594002"
       cy="246.21001"
       gradientUnits="userSpaceOnUse"
       id="XMLID_17_"><stop
         offset=".33150"
         style="stop-color:#ffffff"
         id="stop2424" /><stop
         offset="1"
         style="stop-color:#a1a1a1"
         id="stop2426" /><a:midPointStop
         offset="0.3315"
         style="stop-color:#FFFFFF" /><a:midPointStop
         offset="0.5"
         style="stop-color:#FFFFFF" /><a:midPointStop
         offset="1"
         style="stop-color:#A1A1A1" /></radialGradient><radialGradient
       r="21.209"
       cx="80.594002"
       cy="237.33"
       gradientUnits="userSpaceOnUse"
       id="XMLID_16_"><stop
         offset=".33150"
         style="stop-color:#ffffff"
         id="stop2413" /><stop
         offset="1"
         style="stop-color:#a1a1a1"
         id="stop2415" /><a:midPointStop
         offset="0.3315"
         style="stop-color:#FFFFFF" /><a:midPointStop
         offset="0.5"
         style="stop-color:#FFFFFF" /><a:midPointStop
         offset="1"
         style="stop-color:#A1A1A1" /></radialGradient></defs><rect
     x="72.344002"
     y="256.41"
     width="19.038"
     height="6.3460002"
     style="fill:#6e6e6e"
     id="rect2326" /><rect
     x="65.998001"
     y="252.60001"
     width="31.729"
     height="6.3460002"
     style="fill:url(#XMLID_10_)"
     id="rect2333" /><path
     inkscape:connector-curvature="0"
     d="M 162.46,71.595 C 162.46,32.057 126.09,0 81.229,0 36.368,0 0,32.057 0,71.595 0,87.222 5.741,101.64 15.376,113.4 16.516,115.01 48.648,160.46 51.376,179.64 54.15,199.17 54.15,204.37 54.15,204.37 L 69.45,204.89 69.423,205.68 81.228,205.28 93.032,205.68 93.008,204.89 108.31,204.37 C 108.31,204.37 108.31,199.17 111.08,179.64 113.81,160.46 145.94,115.01 147.08,113.4 156.72,101.64 162.46,87.222 162.46,71.595 Z"
     style="fill:url(#XMLID_11_)"
     id="path2340" /><line
     id="line2344"
     y2="208.17999"
     style="fill:none;stroke:#6d6868;stroke-width:0.75"
     x1="79.959"
     i:knockout="Off"
     x2="74.882004"
     y1="93.955002" /><line
     id="line2346"
     y2="208.17999"
     style="fill:none;stroke:#6d6868;stroke-width:0.75"
     x1="83.766998"
     i:knockout="Off"
     x2="86.305"
     y1="93.955002" /><path
     id="path2357"
     style="opacity:0.26000001;fill:#bcbcbc"
     d="M 81.229,0 80.792,3.277 82.894,19.072 C 82.161,19.206 81.511,19.369 80.792,19.508 175.54,37.956 123.11,109.18 123.11,109.18 L 93.032,205.68 108.31,204.37 C 101.11,182.8 138.34,123.14 138.34,123.14 210.69,14 81.229,0 81.229,0 Z"
     inkscape:connector-curvature="0" /><path
     id="path2359"
     style="opacity:0.26000001;fill:#bcbcbc"
     d="M 80.792,3.277 80.355,0 C 80.355,0 -49.105,13.996 23.242,123.15 23.242,123.15 60.47,182.8 53.278,204.37 L 68.55,205.68 38.472,109.18 C 38.472,109.18 -13.957,37.957 80.791,19.509 80.072,19.37 79.423,19.207 78.688,19.073 L 80.792,3.277 Z"
     inkscape:connector-curvature="0" /><path
     id="path2361"
     style="opacity:0.26000001;fill:#bcbcbc"
     d="M 80.792,3.277 78.689,19.072 C 79.423,19.206 80.073,19.369 80.792,19.508 81.511,19.369 82.16,19.206 82.894,19.072 L 80.792,3.277 Z"
     inkscape:connector-curvature="0" /><path
     id="path2363"
     style="opacity:0.26000001;fill:#bcbcbc"
     d="M 80.792,3.277 78.689,19.072 C 79.423,19.206 80.073,19.369 80.792,19.508 81.511,19.369 82.16,19.206 82.894,19.072 L 80.792,3.277 Z"
     inkscape:connector-curvature="0" /><path
     id="path2367"
     style="fill:#bcbcbc"
     d="M 44.699,12.747 C 44.699,12.747 -12.646,56.137 12.032,99.798 32.248,140.11 -7.651,60.943 44.699,12.747 Z"
     inkscape:connector-curvature="0" /><path
     inkscape:connector-curvature="0"
     d="M 109.78,210.36 C 109.78,214.56 106.37,217.97 102.17,217.97 L 60.286,217.97 C 56.08,217.97 52.671,214.56 52.671,210.36 52.671,206.15 56.08,202.74 60.286,202.74 L 102.17,202.74 C 106.37,202.74 109.78,206.15 109.78,210.36 Z"
     style="fill:url(#XMLID_13_)"
     id="path2378" /><line
     y1="204.00999"
     x2="52.671001"
     i:knockout="Off"
     x1="109.78"
     style="fill:none;stroke:#6d6868;stroke-width:0.75"
     y2="204.00999"
     id="line2380" /><rect
     x="50.768002"
     y="216.39"
     width="59.652"
     height="6.3460002"
     style="fill:url(#XMLID_14_)"
     id="rect2393" /><line
     y1="224.64"
     x2="107.88"
     i:knockout="Off"
     x1="54.575001"
     style="fill:none;stroke:#afafaf;stroke-width:0.75"
     y2="224.64"
     id="line2395" /><rect
     x="50.768002"
     y="225.27"
     width="59.652"
     height="6.3460002"
     style="fill:url(#XMLID_15_)"
     id="rect2404" /><line
     y1="233.52"
     x2="107.88"
     i:knockout="Off"
     x1="54.575001"
     style="fill:none;stroke:#afafaf;stroke-width:0.75"
     y2="233.52"
     id="line2406" /><rect
     x="50.768002"
     y="234.16"
     width="59.652"
     height="6.3460002"
     style="fill:url(#XMLID_16_)"
     id="rect2417" /><line
     y1="242.39999"
     x2="107.88"
     i:knockout="Off"
     x1="54.575001"
     style="fill:none;stroke:#afafaf;stroke-width:0.75"
     y2="242.39999"
     id="line2419" /><rect
     x="50.768002"
     y="243.03999"
     width="59.652"
     height="6.3460002"
     style="fill:url(#XMLID_17_)"
     id="rect2428" /><line
     y1="251.28999"
     x2="107.88"
     i:knockout="Off"
     x1="54.575001"
     style="fill:none;stroke:#afafaf;stroke-width:0.75"
     y2="251.28999"
     id="line2430" /><path
     inkscape:connector-curvature="0"
     d="M 70.993,101.3 C 75.576,108.35 83.008,108.35 87.594,101.3 91.263,95.665 91.263,86.529 87.594,80.891 84.659,76.385 79.9,76.385 76.97,80.891 74.622,84.5 74.622,90.346 76.97,93.951 78.849,96.836 81.893,96.841 83.767,93.956"
     style="fill:none;stroke:#afafaf;stroke-width:0.5"
     id="path2432" /><path
     inkscape:connector-curvature="0"
     d="M 152.96,54.972 C 152.96,54.972 163.27,97.505 135.15,122.61 135.15,122.61 153.87,61.382 152.96,54.972 Z"
     style="opacity:0.54000005;fill:url(#XMLID_18_)"
     id="path2439" /><path
     id="path1373"
     style="fill:url(#linearGradient1346)"
     d="M 80.848,18.4488 C 67.961,18.4488 57.479,28.9308 57.479,41.8178 57.4787,54.7048 67.961,65.1868 80.848,65.1868 93.735,65.1868 104.217,54.7048 104.217,41.8178 104.217,28.9308 93.735,18.4488 80.848,18.4488 Z"
     inkscape:connector-curvature="0" /><path
     id="path1339"
     style="fill:url(#radialGradient1343)"
     d="M 103.348,41.8181 C 103.348,54.2381 93.268,64.3181 80.848,64.3181 68.428,64.3181 58.348,54.2381 58.348,41.8181 58.348,29.3981 68.428,19.3181 80.848,19.3181 93.268,19.3181 103.348,29.3981 103.348,41.8181 Z"
     inkscape:connector-curvature="0" /><path
     id="path1341"
     style="fill:url(#radialGradient2812)"
     d="M 80.865,18.9743 C 71.423,18.9743 63.353,24.6831 59.91,32.7873 64.854,35.6203 70.241,37.6743 76.029,37.4123 81.603,37.0983 86.402,33.3493 92.085,33.6303 96.299,33.5343 101.092,35.1123 103.337,38.8183 101.991,27.6653 92.506,18.9743 80.865,18.9743 Z"
     inkscape:connector-curvature="0" /><path
     id="path2827"
     style="fill:url(#linearGradient2832)"
     d="M 80.848,18.4431 C 67.961,18.4431 57.473,28.9311 57.473,41.8181 57.473,54.7051 67.961,65.1931 80.848,65.1931 93.735,65.1931 104.223,54.7051 104.223,41.8181 104.223,28.9311 93.735,18.4431 80.848,18.4431 Z M 80.848,19.3181 C 93.268,19.3181 103.348,29.3981 103.348,41.8181 103.348,54.2381 93.268,64.3181 80.848,64.3181 68.428,64.3181 58.348,54.2381 58.348,41.8181 58.348,29.3981 68.428,19.3181 80.848,19.3181 Z"
     inkscape:connector-curvature="0" /><path
     id="flowRoot2834"
     style="fill:url(#linearGradient2848)"
     d="M 84.667794,37.08251 81.960766,37.08251 74.276595,38.358325 74.276595,41.89296 75.193299,41.97662 C 77.070839,42.14394 77.594759,42.89688 77.594759,45.553085 L 77.594759,51.8485 C 77.594759,54.337385 77.332695,54.81843 75.673717,55.15307 L 74.276595,55.466795 74.276595,59.00143 87.942247,59.00143 87.942247,55.466795 86.588837,55.15307 C 84.92965,54.7766 84.667794,54.337385 84.667794,51.8485 L 84.667794,37.08251 M 80.869212,27.12697 C 78.555176,27.12697 76.546918,29.09298 76.546918,31.414545 76.546918,33.715195 78.380536,35.597545 80.694572,35.597545 83.05232,35.597545 85.017075,33.631535 85.017075,31.26814 85.017075,28.96749 83.22696,27.12697 80.869212,27.12697"
     inkscape:connector-curvature="0" /><path
     id="path2558"
     style="fill:url(#linearGradient4273)"
     d="M 80.848,18.4488 C 67.961,18.4488 57.479,28.9308 57.479,41.8178 57.4787,54.7048 67.961,65.1868 80.848,65.1868 93.735,65.1868 104.217,54.7048 104.217,41.8178 104.217,28.9308 93.735,18.4488 80.848,18.4488 Z"
     inkscape:connector-curvature="0" /><path
     id="path2560"
     style="fill:url(#radialGradient4275)"
     d="M 103.348,41.8181 C 103.348,54.2381 93.268,64.3181 80.848,64.3181 68.428,64.3181 58.348,54.2381 58.348,41.8181 58.348,29.3981 68.428,19.3181 80.848,19.3181 93.268,19.3181 103.348,29.3981 103.348,41.8181 Z"
     inkscape:connector-curvature="0" /><path
     id="path2562"
     style="fill:url(#radialGradient4277)"
     d="M 80.865,18.9743 C 71.423,18.9743 63.353,24.6831 59.91,32.7873 64.854,35.6203 70.241,37.6743 76.029,37.4123 81.603,37.0983 86.402,33.3493 92.085,33.6303 96.299,33.5343 101.092,35.1123 103.337,38.8183 101.991,27.6653 92.506,18.9743 80.865,18.9743 Z"
     inkscape:connector-curvature="0" /><path
     id="path2564"
     style="fill:url(#linearGradient4279)"
     d="M 80.848,18.4431 C 67.961,18.4431 57.473,28.9311 57.473,41.8181 57.473,54.7051 67.961,65.1931 80.848,65.1931 93.735,65.1931 104.223,54.7051 104.223,41.8181 104.223,28.9311 93.735,18.4431 80.848,18.4431 Z M 80.848,19.3181 C 93.268,19.3181 103.348,29.3981 103.348,41.8181 103.348,54.2381 93.268,64.3181 80.848,64.3181 68.428,64.3181 58.348,54.2381 58.348,41.8181 58.348,29.3981 68.428,19.3181 80.848,19.3181 Z"
     inkscape:connector-curvature="0" /><path
     id="path2566"
     style="fill:url(#linearGradient4281)"
     d="M 84.667794,37.08251 81.960766,37.08251 74.276595,38.358325 74.276595,41.89296 75.193299,41.97662 C 77.070839,42.14394 77.594759,42.89688 77.594759,45.553085 L 77.594759,51.8485 C 77.594759,54.337385 77.332695,54.81843 75.673717,55.15307 L 74.276595,55.466795 74.276595,59.00143 87.942247,59.00143 87.942247,55.466795 86.588837,55.15307 C 84.92965,54.7766 84.667794,54.337385 84.667794,51.8485 L 84.667794,37.08251 M 80.869212,27.12697 C 78.555176,27.12697 76.546918,29.09298 76.546918,31.414545 76.546918,33.715195 78.380536,35.597545 80.694572,35.597545 83.05232,35.597545 85.017075,33.631535 85.017075,31.26814 85.017075,28.96749 83.22696,27.12697 80.869212,27.12697"
     inkscape:connector-curvature="0" /><path
     id="path2572"
     style="fill:url(#linearGradient4257)"
     d="M 80.847,12.880036 C 51.053545,12.880036 26.820209,35.863917 26.820209,64.121242 26.819515,92.378567 51.053545,115.36245 80.847,115.36245 110.64046,115.36245 134.87379,92.378567 134.87379,64.121242 134.87379,35.863917 110.64046,12.880036 80.847,12.880036 Z"
     inkscape:connector-curvature="0" /><path
     id="path2574"
     style="fill:url(#radialGradient4259)"
     d="M 132.86475,64.1219 C 132.86475,91.355234 109.5608,113.45765 80.847,113.45765 52.133202,113.45765 28.82925,91.355234 28.82925,64.1219 28.82925,36.888566 52.133202,14.78615 80.847,14.78615 109.5608,14.78615 132.86475,36.888566 132.86475,64.1219 Z"
     inkscape:connector-curvature="0" /><path
     id="path2576"
     style="fill:url(#radialGradient4261)"
     d="M 80.886302,14.0323 C 59.057342,14.0323 40.400309,26.549985 32.440438,44.320065 43.870471,50.531984 56.324677,55.03579 69.705954,54.461302 82.592485,53.772795 93.687293,45.552362 106.82582,46.168511 116.56817,45.958012 127.6491,49.418092 132.83932,57.544239 129.7275,33.089055 107.79913,14.0323 80.886302,14.0323 Z"
     inkscape:connector-curvature="0" /><path
     id="path2578"
     style="fill:url(#linearGradient4263)"
     d="M 80.847,12.867538 C 51.053545,12.867538 26.806338,35.864575 26.806338,64.1219 26.806338,92.379225 51.053545,115.37626 80.847,115.37626 110.64046,115.37626 134.88766,92.379225 134.88766,64.1219 134.88766,35.864575 110.64046,12.867538 80.847,12.867538 Z M 80.847,14.78615 C 109.5608,14.78615 132.86475,36.888566 132.86475,64.1219 132.86475,91.355234 109.5608,113.45765 80.847,113.45765 52.133202,113.45765 28.82925,91.355234 28.82925,64.1219 28.82925,36.888566 52.133202,14.78615 80.847,14.78615 Z"
     inkscape:connector-curvature="0" /><path
     id="path2580"
     style="fill:url(#linearGradient4265)"
     d="M 89.677984,53.738117 83.419605,53.738117 65.65457,56.535597 65.65457,64.285991 67.773899,64.469432 C 72.114583,64.836315 73.325835,66.487286 73.325835,72.311547 L 73.325835,86.115503 C 73.325835,91.572881 72.719967,92.627669 68.884576,93.361434 L 65.65457,94.049339 65.65457,101.79973 97.24819,101.79973 97.24819,94.049339 94.119242,93.361434 C 90.283368,92.535948 89.677984,91.572881 89.677984,86.115503 L 89.677984,53.738117 M 80.896041,31.908605 C 75.546223,31.908605 70.90333,36.219475 70.90333,41.309971 70.90333,46.354606 75.142472,50.482035 80.492291,50.482035 85.943168,50.482035 90.485485,46.171164 90.485485,40.988948 90.485485,35.944313 86.346919,31.908605 80.896041,31.908605"
     inkscape:connector-curvature="0" /><path
     id="path2300"
     style="fill:url(#linearGradient4241)"
     d="M 80.847,12.880036 C 51.053545,12.880036 26.820209,35.863917 26.820209,64.121242 26.819515,92.378567 51.053545,115.36245 80.847,115.36245 110.64046,115.36245 134.87379,92.378567 134.87379,64.121242 134.87379,35.863917 110.64046,12.880036 80.847,12.880036 Z"
     inkscape:connector-curvature="0" /><path
     id="path2302"
     style="fill:url(#radialGradient4243)"
     d="M 132.86475,64.1219 C 132.86475,91.355234 109.5608,113.45765 80.847,113.45765 52.133202,113.45765 28.82925,91.355234 28.82925,64.1219 28.82925,36.888566 52.133202,14.78615 80.847,14.78615 109.5608,14.78615 132.86475,36.888566 132.86475,64.1219 Z"
     inkscape:connector-curvature="0" /><path
     id="path2304"
     style="fill:url(#radialGradient4245)"
     d="M 80.886302,14.0323 C 59.057342,14.0323 40.400309,26.549985 32.440438,44.320065 43.870471,50.531984 56.324677,55.03579 69.705954,54.461302 82.592485,53.772795 93.687293,45.552362 106.82582,46.168511 116.56817,45.958012 127.6491,49.418092 132.83932,57.544239 129.7275,33.089055 107.79913,14.0323 80.886302,14.0323 Z"
     inkscape:connector-curvature="0" /><path
     id="path2306"
     style="fill:url(#linearGradient4247)"
     d="M 80.847,12.867538 C 51.053545,12.867538 26.806338,35.864575 26.806338,64.1219 26.806338,92.379225 51.053545,115.37626 80.847,115.37626 110.64046,115.37626 134.88766,92.379225 134.88766,64.1219 134.88766,35.864575 110.64046,12.867538 80.847,12.867538 Z M 80.847,14.78615 C 109.5608,14.78615 132.86475,36.888566 132.86475,64.1219 132.86475,91.355234 109.5608,113.45765 80.847,113.45765 52.133202,113.45765 28.82925,91.355234 28.82925,64.1219 28.82925,36.888566 52.133202,14.78615 80.847,14.78615 Z"
     inkscape:connector-curvature="0" /><path
     id="path2308"
     style="fill:url(#linearGradient4249)"
     d="M 89.677984,53.738117 83.419605,53.738117 65.65457,56.535597 65.65457,64.285991 67.773899,64.469432 C 72.114583,64.836315 73.325835,66.487286 73.325835,72.311547 L 73.325835,86.115503 C 73.325835,91.572881 72.719967,92.627669 68.884576,93.361434 L 65.65457,94.049339 65.65457,101.79973 97.24819,101.79973 97.24819,94.049339 94.119242,93.361434 C 90.283368,92.535948 89.677984,91.572881 89.677984,86.115503 L 89.677984,53.738117 M 80.896041,31.908605 C 75.546223,31.908605 70.90333,36.219475 70.90333,41.309971 70.90333,46.354606 75.142472,50.482035 80.492291,50.482035 85.943168,50.482035 90.485485,46.171164 90.485485,40.988948 90.485485,35.944313 86.346919,31.908605 80.896041,31.908605"
     inkscape:connector-curvature="0" /><metadata
     id="metadata111"><rdf:RDF><cc:Work><dc:format>image/svg+xml</dc:format><dc:type
           rdf:resource="http://purl.org/dc/dcmitype/StillImage" /><cc:license
           rdf:resource="http://creativecommons.org/licenses/publicdomain/" /><dc:publisher><cc:Agent
             rdf:about="http://openclipart.org/"><dc:title>Openclipart</dc:title></cc:Agent></dc:publisher><dc:title>info_lightbulb</dc:title><dc:date>2007-04-09T12:34:48</dc:date><dc:description>A lightbulb with a green &quot;info&quot; icon superimposed on it. Suitable for use as a &quot;tip&quot; or &quot;info&quot; or &quot;idea&quot; icon.</dc:description><dc:source>https://openclipart.org/detail/3836/info_lightbulb-by-selanit</dc:source><dc:creator><cc:Agent><dc:title>Selanit</dc:title></cc:Agent></dc:creator><dc:subject><rdf:Bag><rdf:li>bulb</rdf:li><rdf:li>icon</rdf:li><rdf:li>info</rdf:li><rdf:li>remix</rdf:li><rdf:li>tip</rdf:li></rdf:Bag></dc:subject></cc:Work><cc:License
         rdf:about="http://creativecommons.org/licenses/publicdomain/"><cc:permits
           rdf:resource="http://creativecommons.org/ns#Reproduction" /><cc:permits
           rdf:resource="http://creativecommons.org/ns#Distribution" /><cc:permits
           rdf:resource="http://creativecommons.org/ns#DerivativeWorks" /></cc:License></rdf:RDF></metadata></svg>