<?xml version="1.0" encoding="UTF-8" standalone="no"?>
<!-- Created with Inkscape (http://www.inkscape.org/) -->

<svg
   xmlns:dc="http://purl.org/dc/elements/1.1/"
   xmlns:cc="http://creativecommons.org/ns#"
   xmlns:rdf="http://www.w3.org/1999/02/22-rdf-syntax-ns#"
   xmlns:svg="http://www.w3.org/2000/svg"
   xmlns="http://www.w3.org/2000/svg"
   xmlns:sodipodi="http://sodipodi.sourceforge.net/DTD/sodipodi-0.dtd"
   xmlns:inkscape="http://www.inkscape.org/namespaces/inkscape"
   width="32px"
   height="32px"
   id="svg3035"
   version="1.1"
   inkscape:version="0.48.4 r9939"
   sodipodi:docname="sync images.svg">
  <defs
     id="defs3037" />
  <sodipodi:namedview
     id="base"
     pagecolor="#ffffff"
     bordercolor="#666666"
     borderopacity="1.0"
     inkscape:pageopacity="0.0"
     inkscape:pageshadow="2"
     inkscape:zoom="1"
     inkscape:cx="39"
     inkscape:cy="16.5"
     inkscape:current-layer="layer1"
     showgrid="true"
     inkscape:grid-bbox="true"
     inkscape:document-units="px"
     inkscape:window-width="1416"
     inkscape:window-height="1028"
     inkscape:window-x="237"
     inkscape:window-y="260"
     inkscape:window-maximized="0" />
  <metadata
     id="metadata3040">
    <rdf:RDF>
      <cc:Work
         rdf:about="">
        <dc:format>image/svg+xml</dc:format>
        <dc:type
           rdf:resource="http://purl.org/dc/dcmitype/StillImage" />
        <dc:title></dc:title>
      </cc:Work>
    </rdf:RDF>
  </metadata>
  <g
     id="layer1"
     inkscape:label="Layer 1"
     inkscape:groupmode="layer">
    <rect
       y="17.143654"
       x="0.95699549"
       height="14.217958"
       width="20.218941"
       id="rect7078"
       style="opacity:0.6;fill:#000000;fill-opacity:1;stroke:#ffffff;stroke-width:0.67052996;stroke-linecap:round;stroke-linejoin:round;stroke-miterlimit:4;stroke-opacity:1;stroke-dasharray:none;stroke-dashoffset:0" />
    <path
       transform="matrix(-1.3013736,0.22141179,0.12007444,0.8407345,58.809856,4.8729827)"
       d="m 37.003888,19.249956 a 1.15038,1.629705 0 1 1 -2.30076,0 1.15038,1.629705 0 1 1 2.30076,0 z"
       sodipodi:ry="1.629705"
       sodipodi:rx="1.15038"
       sodipodi:cy="19.249956"
       sodipodi:cx="35.853508"
       id="path7145"
       style="fill:#cccccc;fill-opacity:1;stroke:#cccccc;stroke-width:0.36002409;stroke-linecap:round;stroke-linejoin:round;stroke-miterlimit:4;stroke-opacity:1;stroke-dasharray:none;stroke-dashoffset:0"
       sodipodi:type="arc" />
    <path
       transform="matrix(0.74827005,0,0,-0.43834704,-22.151905,34.304514)"
       d="m 37.003888,19.249956 a 1.15038,1.629705 0 1 1 -2.30076,0 1.15038,1.629705 0 1 1 2.30076,0 z"
       sodipodi:ry="1.629705"
       sodipodi:rx="1.15038"
       sodipodi:cy="19.249956"
       sodipodi:cx="35.853508"
       id="path7080"
       style="fill:#cccccc;fill-opacity:1;stroke:#cccccc;stroke-width:0.36002409;stroke-linecap:round;stroke-linejoin:round;stroke-miterlimit:4;stroke-opacity:1;stroke-dasharray:none;stroke-dashoffset:0"
       sodipodi:type="arc" />
    <path
       sodipodi:type="arc"
       style="fill:#cccccc;fill-opacity:1;stroke:#cccccc;stroke-width:0.36002409;stroke-linecap:round;stroke-linejoin:round;stroke-miterlimit:4;stroke-opacity:1;stroke-dasharray:none;stroke-dashoffset:0"
       id="path7084"
       sodipodi:cx="35.853508"
       sodipodi:cy="19.249956"
       sodipodi:rx="1.15038"
       sodipodi:ry="1.629705"
       d="m 37.003888,19.249956 a 1.15038,1.629705 0 1 1 -2.30076,0 1.15038,1.629705 0 1 1 2.30076,0 z"
       transform="matrix(0.51642105,-0.07485282,-0.04476672,-0.30252666,-12.003883,35.669045)" />
    <path
       sodipodi:type="arc"
       style="fill:#cccccc;fill-opacity:1;stroke:#cccccc;stroke-width:0.36002409;stroke-linecap:round;stroke-linejoin:round;stroke-miterlimit:4;stroke-opacity:1;stroke-dasharray:none;stroke-dashoffset:0"
       id="path7092"
       sodipodi:cx="35.853508"
       sodipodi:cy="19.249956"
       sodipodi:rx="1.15038"
       sodipodi:ry="1.629705"
       d="m 37.003888,19.249956 a 1.15038,1.629705 0 1 1 -2.30076,0 1.15038,1.629705 0 1 1 2.30076,0 z"
       transform="matrix(0.82511971,-0.12729711,-0.0761317,-0.48336663,-19.306905,32.192276)" />
    <path
       transform="matrix(-0.56598108,-0.04718491,-0.02643004,0.35400873,27.330938,18.3056)"
       d="m 37.003888,19.249956 a 1.15038,1.629705 0 1 1 -2.30076,0 1.15038,1.629705 0 1 1 2.30076,0 z"
       sodipodi:ry="1.629705"
       sodipodi:rx="1.15038"
       sodipodi:cy="19.249956"
       sodipodi:cx="35.853508"
       id="path7137"
       style="fill:#cccccc;fill-opacity:1;stroke:#cccccc;stroke-width:0.36002409;stroke-linecap:round;stroke-linejoin:round;stroke-miterlimit:4;stroke-opacity:1;stroke-dasharray:none;stroke-dashoffset:0"
       sodipodi:type="arc" />
    <path
       transform="matrix(-0.82199475,0.03811642,0.02135043,0.51413967,41.536906,16.947583)"
       d="m 37.003888,19.249956 a 1.15038,1.629705 0 1 1 -2.30076,0 1.15038,1.629705 0 1 1 2.30076,0 z"
       sodipodi:ry="1.629705"
       sodipodi:rx="1.15038"
       sodipodi:cy="19.249956"
       sodipodi:cx="35.853508"
       id="path7141"
       style="fill:#cccccc;fill-opacity:1;stroke:#cccccc;stroke-width:0.36002409;stroke-linecap:round;stroke-linejoin:round;stroke-miterlimit:4;stroke-opacity:1;stroke-dasharray:none;stroke-dashoffset:0"
       sodipodi:type="arc" />
    <path
       transform="matrix(-0.69863272,-0.08479823,-0.04749868,0.43697944,30.989255,15.789931)"
       d="m 37.003888,19.249956 a 1.15038,1.629705 0 1 1 -2.30076,0 1.15038,1.629705 0 1 1 2.30076,0 z"
       sodipodi:ry="1.629705"
       sodipodi:rx="1.15038"
       sodipodi:cy="19.249956"
       sodipodi:cx="35.853508"
       id="path7143"
       style="fill:#cccccc;fill-opacity:1;stroke:#cccccc;stroke-width:0.36002409;stroke-linecap:round;stroke-linejoin:round;stroke-miterlimit:4;stroke-opacity:1;stroke-dasharray:none;stroke-dashoffset:0"
       sodipodi:type="arc" />
    <path
       style="fill:none;stroke:#ff6600;stroke-width:3;stroke-linecap:round;stroke-linejoin:round;stroke-miterlimit:4;stroke-opacity:1;stroke-dasharray:none;stroke-dashoffset:0"
       d="m 13.908886,12.997231 c 0.452346,-1.683865 1.39779,-3.2451112 2.812058,-4.4349532 3.635099,-3.0582525 8.990918,-2.5047385 11.962561,1.236308 2.97164,3.7410462 2.433804,9.2529672 -1.201294,12.3112192 -1.980535,1.666248 -4.471859,2.260356 -6.810077,1.850933"
       id="path7114"
       inkscape:connector-curvature="0" />
    <path
       sodipodi:type="arc"
       style="fill:#cccccc;fill-opacity:1;stroke:#cccccc;stroke-width:0.36002409;stroke-linecap:round;stroke-linejoin:round;stroke-miterlimit:4;stroke-opacity:1;stroke-dasharray:none;stroke-dashoffset:0"
       id="path7166"
       sodipodi:cx="35.853508"
       sodipodi:cy="19.249956"
       sodipodi:rx="1.15038"
       sodipodi:ry="1.629705"
       d="m 37.003888,19.249956 a 1.15038,1.629705 0 1 1 -2.30076,0 1.15038,1.629705 0 1 1 2.30076,0 z"
       transform="matrix(-1.1937291,0.23289323,0.15743804,0.70210382,48.754387,5.0350412)" />
    <path
       sodipodi:type="arc"
       style="fill:#cccccc;fill-opacity:1;stroke:#cccccc;stroke-width:0.36002409;stroke-linecap:round;stroke-linejoin:round;stroke-miterlimit:4;stroke-opacity:1;stroke-dasharray:none;stroke-dashoffset:0"
       id="path7170"
       sodipodi:cx="35.853508"
       sodipodi:cy="19.249956"
       sodipodi:rx="1.15038"
       sodipodi:ry="1.629705"
       d="m 37.003888,19.249956 a 1.15038,1.629705 0 1 1 -2.30076,0 1.15038,1.629705 0 1 1 2.30076,0 z"
       transform="matrix(-0.48660081,0.12399441,0.09238227,0.28786936,24.804891,8.6496448)" />
    <path
       sodipodi:type="arc"
       style="fill:#cccccc;fill-opacity:1;stroke:#cccccc;stroke-width:0.36002409;stroke-linecap:round;stroke-linejoin:round;stroke-miterlimit:4;stroke-opacity:1;stroke-dasharray:none;stroke-dashoffset:0"
       id="path7172"
       sodipodi:cx="35.853508"
       sodipodi:cy="19.249956"
       sodipodi:rx="1.15038"
       sodipodi:ry="1.629705"
       d="m 37.003888,19.249956 a 1.15038,1.629705 0 1 1 -2.30076,0 1.15038,1.629705 0 1 1 2.30076,0 z"
       transform="matrix(-1.0458869,0.01258342,-0.04789827,0.6041445,46.270138,9.382223)" />
    <rect
       style="opacity:0.6;fill:#000000;fill-opacity:1;stroke:#ffffff;stroke-width:0.67052996;stroke-linecap:round;stroke-linejoin:round;stroke-miterlimit:4;stroke-opacity:1;stroke-dasharray:none;stroke-dashoffset:0"
       id="rect7178"
       width="20.218941"
       height="14.217958"
       x="0.74329376"
       y="0.3510119" />
    <path
       sodipodi:type="arc"
       style="fill:#cccccc;fill-opacity:1;stroke:#cccccc;stroke-width:0.36002409;stroke-linecap:round;stroke-linejoin:round;stroke-miterlimit:4;stroke-opacity:1;stroke-dasharray:none;stroke-dashoffset:0"
       id="path7180"
       sodipodi:cx="35.853508"
       sodipodi:cy="19.249956"
       sodipodi:rx="1.15038"
       sodipodi:ry="1.629705"
       d="m 37.003888,19.249956 a 1.15038,1.629705 0 1 1 -2.30076,0 1.15038,1.629705 0 1 1 2.30076,0 z"
       transform="matrix(0.74827005,0,0,-0.43834704,-22.423234,17.557355)" />
    <path
       transform="matrix(0.51642105,-0.07485282,-0.04476672,-0.30252666,-12.275211,18.921886)"
       d="m 37.003888,19.249956 a 1.15038,1.629705 0 1 1 -2.30076,0 1.15038,1.629705 0 1 1 2.30076,0 z"
       sodipodi:ry="1.629705"
       sodipodi:rx="1.15038"
       sodipodi:cy="19.249956"
       sodipodi:cx="35.853508"
       id="path7184"
       style="fill:#cccccc;fill-opacity:1;stroke:#cccccc;stroke-width:0.36002409;stroke-linecap:round;stroke-linejoin:round;stroke-miterlimit:4;stroke-opacity:1;stroke-dasharray:none;stroke-dashoffset:0"
       sodipodi:type="arc" />
    <path
       transform="matrix(0.82199475,-0.03811642,-0.02135043,-0.51413967,-14.117989,14.539021)"
       d="m 37.003888,19.249956 a 1.15038,1.629705 0 1 1 -2.30076,0 1.15038,1.629705 0 1 1 2.30076,0 z"
       sodipodi:ry="1.629705"
       sodipodi:rx="1.15038"
       sodipodi:cy="19.249956"
       sodipodi:cx="35.853508"
       id="path7186"
       style="fill:#cccccc;fill-opacity:1;stroke:#cccccc;stroke-width:0.36002409;stroke-linecap:round;stroke-linejoin:round;stroke-miterlimit:4;stroke-opacity:1;stroke-dasharray:none;stroke-dashoffset:0"
       sodipodi:type="arc" />
    <path
       transform="matrix(0.4913348,0.58383443,0.47366581,-0.2686239,-17.382809,-11.168105)"
       d="m 37.003888,19.249956 a 1.15038,1.629705 0 1 1 -2.30076,0 1.15038,1.629705 0 1 1 2.30076,0 z"
       sodipodi:ry="1.629705"
       sodipodi:rx="1.15038"
       sodipodi:cy="19.249956"
       sodipodi:cx="35.853508"
       id="path7190"
       style="fill:#cccccc;fill-opacity:1;stroke:#cccccc;stroke-width:0.36002409;stroke-linecap:round;stroke-linejoin:round;stroke-miterlimit:4;stroke-opacity:1;stroke-dasharray:none;stroke-dashoffset:0"
       sodipodi:type="arc" />
    <path
       sodipodi:type="arc"
       style="fill:#cccccc;fill-opacity:1;stroke:#cccccc;stroke-width:0.36002409;stroke-linecap:round;stroke-linejoin:round;stroke-miterlimit:4;stroke-opacity:1;stroke-dasharray:none;stroke-dashoffset:0"
       id="path7194"
       sodipodi:cx="35.853508"
       sodipodi:cy="19.249956"
       sodipodi:rx="1.15038"
       sodipodi:ry="1.629705"
       d="m 37.003888,19.249956 a 1.15038,1.629705 0 1 1 -2.30076,0 1.15038,1.629705 0 1 1 2.30076,0 z"
       transform="matrix(-0.19603298,-0.45881494,-0.38255288,0.1330815,17.403045,18.929237)" />
    <path
       sodipodi:type="arc"
       style="fill:#cccccc;fill-opacity:1;stroke:#cccccc;stroke-width:0.36002409;stroke-linecap:round;stroke-linejoin:round;stroke-miterlimit:4;stroke-opacity:1;stroke-dasharray:none;stroke-dashoffset:0"
       id="path7198"
       sodipodi:cx="35.853508"
       sodipodi:cy="19.249956"
       sodipodi:rx="1.15038"
       sodipodi:ry="1.629705"
       d="m 37.003888,19.249956 a 1.15038,1.629705 0 1 1 -2.30076,0 1.15038,1.629705 0 1 1 2.30076,0 z"
       transform="matrix(-0.3964959,-0.62009632,-0.52968497,0.23954398,31.482219,27.313301)" />
    <path
       sodipodi:type="arc"
       style="fill:#cccccc;fill-opacity:1;stroke:#cccccc;stroke-width:0.36002409;stroke-linecap:round;stroke-linejoin:round;stroke-miterlimit:4;stroke-opacity:1;stroke-dasharray:none;stroke-dashoffset:0"
       id="path7200"
       sodipodi:cx="35.853508"
       sodipodi:cy="19.249956"
       sodipodi:rx="1.15038"
       sodipodi:ry="1.629705"
       d="m 37.003888,19.249956 a 1.15038,1.629705 0 1 1 -2.30076,0 1.15038,1.629705 0 1 1 2.30076,0 z"
       transform="matrix(-0.21414258,-0.57786754,-0.47866526,0.15275256,21.626884,20.671406)" />
    <path
       sodipodi:type="arc"
       style="fill:#cccccc;fill-opacity:1;stroke:#cccccc;stroke-width:0.36002409;stroke-linecap:round;stroke-linejoin:round;stroke-miterlimit:4;stroke-opacity:1;stroke-dasharray:none;stroke-dashoffset:0"
       id="path7202"
       sodipodi:cx="35.853508"
       sodipodi:cy="19.249956"
       sodipodi:rx="1.15038"
       sodipodi:ry="1.629705"
       d="m 37.003888,19.249956 a 1.15038,1.629705 0 1 1 -2.30076,0 1.15038,1.629705 0 1 1 2.30076,0 z"
       transform="matrix(-0.82511971,0.12729711,0.0761317,0.48336663,47.415276,-10.318966)" />
    <path
       transform="matrix(-0.76191013,-0.82351758,-0.66768993,0.42647241,50.63535,29.280012)"
       d="m 37.003888,19.249956 a 1.15038,1.629705 0 1 1 -2.30076,0 1.15038,1.629705 0 1 1 2.30076,0 z"
       sodipodi:ry="1.629705"
       sodipodi:rx="1.15038"
       sodipodi:cy="19.249956"
       sodipodi:cx="35.853508"
       id="path7206"
       style="fill:#cccccc;fill-opacity:1;stroke:#cccccc;stroke-width:0.36002409;stroke-linecap:round;stroke-linejoin:round;stroke-miterlimit:4;stroke-opacity:1;stroke-dasharray:none;stroke-dashoffset:0"
       sodipodi:type="arc" />
    <path
       transform="matrix(-0.76626748,-0.02716748,-0.04596153,0.47785785,40.412316,2.7166035)"
       d="m 37.003888,19.249956 a 1.15038,1.629705 0 1 1 -2.30076,0 1.15038,1.629705 0 1 1 2.30076,0 z"
       sodipodi:ry="1.629705"
       sodipodi:rx="1.15038"
       sodipodi:cy="19.249956"
       sodipodi:cx="35.853508"
       id="path7208"
       style="fill:#cccccc;fill-opacity:1;stroke:#cccccc;stroke-width:0.36002409;stroke-linecap:round;stroke-linejoin:round;stroke-miterlimit:4;stroke-opacity:1;stroke-dasharray:none;stroke-dashoffset:0"
       sodipodi:type="arc" />
    <path
       transform="matrix(-0.34104008,-0.3230864,-0.26168756,0.19641284,26.429202,12.784556)"
       d="m 37.003888,19.249956 a 1.15038,1.629705 0 1 1 -2.30076,0 1.15038,1.629705 0 1 1 2.30076,0 z"
       sodipodi:ry="1.629705"
       sodipodi:rx="1.15038"
       sodipodi:cy="19.249956"
       sodipodi:cx="35.853508"
       id="path7210"
       style="fill:#cccccc;fill-opacity:1;stroke:#cccccc;stroke-width:0.36002409;stroke-linecap:round;stroke-linejoin:round;stroke-miterlimit:4;stroke-opacity:1;stroke-dasharray:none;stroke-dashoffset:0"
       sodipodi:type="arc" />
    <path
       transform="matrix(-0.46684427,-0.80457421,-0.65406898,0.22495096,34.971836,29.727001)"
       d="m 37.003888,19.249956 a 1.15038,1.629705 0 1 1 -2.30076,0 1.15038,1.629705 0 1 1 2.30076,0 z"
       sodipodi:ry="1.629705"
       sodipodi:rx="1.15038"
       sodipodi:cy="19.249956"
       sodipodi:cx="35.853508"
       id="path7212"
       style="fill:#cccccc;fill-opacity:1;stroke:#cccccc;stroke-width:0.36002409;stroke-linecap:round;stroke-linejoin:round;stroke-miterlimit:4;stroke-opacity:1;stroke-dasharray:none;stroke-dashoffset:0"
       sodipodi:type="arc" />
    <path
       style="fill:#ff6600;fill-opacity:1;stroke:#ff6600;stroke-width:1.44009852;stroke-linecap:round;stroke-linejoin:round;stroke-miterlimit:4;stroke-opacity:1;stroke-dasharray:none"
       d="m 13.148792,20.46595 8.493833,-0.716393 -2.42015,7.020776 z"
       id="path7119"
       inkscape:connector-curvature="0"
       sodipodi:nodetypes="cccc" />
  </g>
</svg>
