<?xml version="1.0" encoding="UTF-8" standalone="no"?>
<!-- Generator: Adobe Illustrator 12.0.0, SVG Export Plug-In . SVG Version: 6.00 Build 51448)  --><svg enable-background="new 0 0 139 139" height="128" id="Livello_1" inkscape:output_extension="org.inkscape.output.svgz.inkscape" inkscape:version="0.45+devel" overflow="visible" sodipodi:docname="system-help.svgz" sodipodi:version="0.32" space="preserve" style="overflow:visible" version="1.0" viewBox="0 0 139 139" width="128" xmlns="http://www.w3.org/2000/svg" xmlns:cc="http://web.resource.org/cc/" xmlns:dc="http://purl.org/dc/elements/1.1/" xmlns:inkscape="http://www.inkscape.org/namespaces/inkscape" xmlns:rdf="http://www.w3.org/1999/02/22-rdf-syntax-ns#" xmlns:sodipodi="http://sodipodi.sourceforge.net/DTD/sodipodi-0.dtd" xmlns:svg="http://www.w3.org/2000/svg" xmlns:xlink="http://www.w3.org/1999/xlink">
  <metadata>
    <rdf:RDF xmlns:cc="http://web.resource.org/cc/" xmlns:dc="http://purl.org/dc/elements/1.1/" xmlns:rdf="http://www.w3.org/1999/02/22-rdf-syntax-ns#">
      <cc:Work rdf:about="">
        <dc:title></dc:title>
        <dc:description></dc:description>
        <dc:subject>
          <rdf:Bag>
            <rdf:li>unsorted</rdf:li>
          </rdf:Bag>
        </dc:subject>
        <dc:publisher>
          <cc:Agent rdf:about="http://www.openclipart.org/">
            <dc:title>Open Clip Art Library, Source: Oxygen Icons, Source: Oxygen Icons, Source: Oxygen Icons, Source: Oxygen Icons</dc:title>
          </cc:Agent>
        </dc:publisher>
        <dc:creator>
          <cc:Agent>
            <dc:title></dc:title>
          </cc:Agent>
        </dc:creator>
        <dc:rights>
          <cc:Agent>
            <dc:title></dc:title>
          </cc:Agent>
        </dc:rights>
        <dc:date></dc:date>
        <dc:format>image/svg+xml</dc:format>
        <dc:type rdf:resource="http://purl.org/dc/dcmitype/StillImage"/>
        <cc:license rdf:resource="http://creativecommons.org/licenses/by-sa/3.0/ or http://creativecommons.org/licenses/LGPL/2.1/"/>
        <dc:language>en</dc:language>
      </cc:Work>
    </rdf:RDF>
  </metadata>
  <defs id="defs3162">
    <filter height="1.6950431" id="filter3547" inkscape:collect="always" width="1.265282" x="-0.132641" y="-0.34752154">
      <feGaussianBlur id="feGaussianBlur3549" inkscape:collect="always" stdDeviation="2.7512044"/>
    </filter>
    <filter id="filter5097" inkscape:collect="always">
      <feGaussianBlur id="feGaussianBlur5099" inkscape:collect="always" stdDeviation="2.32"/>
    </filter>
    <filter height="1.1443688" id="filter5125" inkscape:collect="always" width="1.286536" x="-0.143268" y="-0.072184406">
      <feGaussianBlur id="feGaussianBlur5127" inkscape:collect="always" stdDeviation="1.91024"/>
    </filter>
  </defs>
  <sodipodi:namedview bordercolor="#666666" borderopacity="1.0" gridtolerance="10.0" guidetolerance="10.0" height="128px" id="base" inkscape:current-layer="Livello_1" inkscape:cx="99.496726" inkscape:cy="69.329657" inkscape:pageopacity="0.0" inkscape:pageshadow="2" inkscape:window-height="697" inkscape:window-width="1024" inkscape:window-x="0" inkscape:window-y="0" inkscape:zoom="2.9352518" objecttolerance="10.0" pagecolor="#ffffff" width="128px"/>
  <filter id="AI_Sfocatura_4">
    <feGaussianBlur id="feGaussianBlur3096" stdDeviation="4"/>
  </filter>
  <filter id="AI_Sfocatura_2">
    <feGaussianBlur id="feGaussianBlur3099" stdDeviation="2"/>
  </filter>
  <radialGradient cx="69.600098" cy="69.576698" gradientTransform="matrix(1,0,0,-0.1823,0,134.8566)" gradientUnits="userSpaceOnUse" id="XMLID_12_" r="58">
    <stop id="stop3102" offset="0" style="stop-color:#000000"/>
    <stop id="stop3104" offset="1" style="stop-color:#000000;stop-opacity:0;"/>
  </radialGradient>
  <circle cx="69.599998" cy="69.599998" id="circle5091" r="58" sodipodi:cx="69.599998" sodipodi:cy="69.599998" sodipodi:rx="58" sodipodi:ry="58" style="opacity:0.7;fill:#000000;fill-opacity:1;stroke:none;filter:url(#filter5097)" transform="matrix(1.0859375,0,0,1.0859375,-3.9093733,-8.2531233)"/>
  <ellipse cx="69.599998" cy="122.173" id="ellipse3106" rx="58" ry="10.573" sodipodi:cx="69.599998" sodipodi:cy="122.173" sodipodi:rx="58" sodipodi:ry="10.573" style="opacity:0.6;fill:url(#XMLID_12_)" transform="translate(-9.9998474e-2,1.9102535)"/>
  <radialGradient cx="69.600098" cy="69.600098" gradientUnits="userSpaceOnUse" id="XMLID_13_" r="58">
    <stop id="stop3113" offset="0.6154" style="stop-color:#EEEEEE"/>
    <stop id="stop3115" offset="0.8225" style="stop-color:#DDDDDD"/>
    <stop id="stop3117" offset="1" style="stop-color:#FFFFFF"/>
  </radialGradient>
  <circle cx="69.599998" cy="69.599998" id="circle3119" r="58" sodipodi:cx="69.599998" sodipodi:cy="69.599998" sodipodi:rx="58" sodipodi:ry="58" style="fill:url(#XMLID_13_)" transform="matrix(1.0859375,0,0,1.0859375,-3.9093733,-8.2531233)"/>
  <linearGradient gradientTransform="matrix(1.0859375,0,0,1.0859375,-3.9093733,-8.2531233)" gradientUnits="userSpaceOnUse" id="XMLID_14_" x1="27.6001" x2="111.6001" y1="69.600098" y2="69.600098">
    <stop id="stop3122" offset="0" style="stop-color:#2A94EC"/>
    <stop id="stop3124" offset="1" style="stop-color:#0057AE"/>
  </linearGradient>
  <path d="M 26.062502,67.328127 C 26.062502,92.477355 46.522651,112.9375 71.671877,112.9375 C 96.821104,112.9375 117.28125,92.477355 117.28125,67.328127 C 117.28125,42.178901 96.821104,21.718753 71.671877,21.718753 C 46.522651,21.718753 26.062502,42.178901 26.062502,67.328127 z" id="path3126" style="fill:url(#XMLID_14_)"/>
  <g cx="343.99899" cy="92" enable-background="new    " id="circle22111" rx="36" ry="36" style="opacity:0.3;filter:url(#filter3547)" transform="matrix(1.0859375,0,0,1.0859375,-3.9093733,-8.2531233)">
    <path d="M 77.041,104.759 C 63.767,106.115 50.122,103.11 46.565,98.042 C 43.007,92.976 50.885,87.768 64.16,86.41 C 77.434,85.054 91.079,88.058 94.637,93.126 C 98.193,98.194 90.315,103.401 77.041,104.759 z" id="path3129" style="fill:#a8dde0"/>
  </g>
  <linearGradient gradientTransform="matrix(0,1.7280523,1.7280523,0,-650.07477,-218.71693)" gradientUnits="userSpaceOnUse" id="circle16776_1_" x1="135.5601" x2="161.87621" y1="417.66461" y2="417.66461">
    <stop id="stop3132" offset="0" style="stop-color:#FFFFFF"/>
    <stop id="stop3134" offset="1" style="stop-color:#ffffff;stop-opacity:0;"/>
  </linearGradient>
  <path d="M 71.671877,24.06655 C 50.288682,24.06655 32.41958,38.77123 28.113838,58.349597 C 36.698174,66.142284 52.986151,54.358777 71.671877,54.358777 C 90.357604,54.358777 106.64666,66.142284 115.22991,58.349597 C 110.92417,38.77123 93.056158,24.06655 71.671877,24.06655 z" enable-background="new    " id="circle16776" style="opacity:0.8;fill:url(#circle16776_1_)"/>
  <g id="g3137" transform="matrix(1.0859375,0,0,1.0859375,-3.9093733,-8.2531233)">
    <defs id="defs3139">
      <path d="M 27.6,69.6 C 27.6,92.759 46.441,111.6 69.6,111.6 C 92.759,111.6 111.6,92.759 111.6,69.6 C 111.6,46.441 92.759,27.6 69.6,27.6 C 46.441,27.6 27.6,46.441 27.6,69.6 z" id="XMLID_10_"/>
    </defs>
    <clipPath id="XMLID_6_">
      <use height="139" id="use3143" width="139" x="0" xlink:href="#XMLID_10_" y="0"/>
    </clipPath>
    <g clip-path="url(#XMLID_6_)" id="g3145" style="filter:url(#AI_Sfocatura_2)">
      <path d="M 27.6,69.6 C 27.6,92.759 46.441,111.6 69.6,111.6 C 92.759,111.6 111.6,92.759 111.6,69.6 C 111.6,46.441 92.759,27.6 69.6,27.6 C 46.441,27.6 27.6,46.441 27.6,69.6 z" id="path3147" style="fill:none;stroke:#00316e;stroke-width:2"/>
    </g>
  </g>
  <g id="g5119" style="fill:#00316e;filter:url(#filter5125)" transform="matrix(1.0859375,0,0,1.1113796,-3.201342,-9.3177223)">
    <path d="M 63.37,80.089 L 63.192,77.746 C 63.012,73.148 64.44,68.462 68.451,63.684 C 71.304,60.26 73.62,57.286 73.62,54.221 C 73.62,51.157 71.571,48.994 67.202,48.903 C 64.173,48.903 60.696,49.895 58.289,51.517 L 55.348,41.784 C 58.556,39.89 63.815,38.088 70.233,38.088 C 81.91,38.088 87.348,44.668 87.348,52.058 C 87.348,58.997 83.069,63.415 79.681,67.289 C 76.472,70.894 75.046,74.41 75.135,78.466 L 75.135,80.088 L 63.37,80.088 L 63.37,80.089 z" id="path5121" style="fill:#00316e"/>
    <circle cx="69.599998" cy="93.599998" id="circle5123" r="8" sodipodi:cx="69.599998" sodipodi:cy="93.599998" sodipodi:rx="8" sodipodi:ry="8" style="fill:#00316e"/>
  </g>
  <g id="g5101" transform="matrix(1.0859375,0,0,1.0859375,-3.201342,-8.2531233)">
    <path d="M 63.37,80.089 L 63.192,77.746 C 63.012,73.148 64.44,68.462 68.451,63.684 C 71.304,60.26 73.62,57.286 73.62,54.221 C 73.62,51.157 71.571,48.994 67.202,48.903 C 64.173,48.903 60.696,49.895 58.289,51.517 L 55.348,41.784 C 58.556,39.89 63.815,38.088 70.233,38.088 C 81.91,38.088 87.348,44.668 87.348,52.058 C 87.348,58.997 83.069,63.415 79.681,67.289 C 76.472,70.894 75.046,74.41 75.135,78.466 L 75.135,80.088 L 63.37,80.088 L 63.37,80.089 z" id="path3157" style="fill:#ffffff"/>
    <circle cx="69.599998" cy="93.599998" id="circle3159" r="8" sodipodi:cx="69.599998" sodipodi:cy="93.599998" sodipodi:rx="8" sodipodi:ry="8" style="fill:#ffffff"/>
  </g>
</svg>
