<?xml version="1.0" encoding="UTF-8" standalone="no"?>
<!-- Created with Inkscape (http://www.inkscape.org/) -->

<svg
   xmlns:dc="http://purl.org/dc/elements/1.1/"
   xmlns:cc="http://creativecommons.org/ns#"
   xmlns:rdf="http://www.w3.org/1999/02/22-rdf-syntax-ns#"
   xmlns:svg="http://www.w3.org/2000/svg"
   xmlns="http://www.w3.org/2000/svg"
   xmlns:sodipodi="http://sodipodi.sourceforge.net/DTD/sodipodi-0.dtd"
   xmlns:inkscape="http://www.inkscape.org/namespaces/inkscape"
   width="62.162838"
   height="58.040684"
   id="svg3035"
   version="1.1"
   inkscape:version="0.91 r13725"
   sodipodi:docname="training.svg">
  <defs
     id="defs3037" />
  <sodipodi:namedview
     id="base"
     pagecolor="#757575"
     bordercolor="#666666"
     borderopacity="1.0"
     inkscape:pageopacity="1"
     inkscape:pageshadow="2"
     inkscape:zoom="34.487653"
     inkscape:cx="38.061111"
     inkscape:cy="11.534691"
     inkscape:current-layer="layer1"
     showgrid="true"
     inkscape:grid-bbox="true"
     inkscape:document-units="px"
     inkscape:window-width="2560"
     inkscape:window-height="1547"
     inkscape:window-x="-8"
     inkscape:window-y="-8"
     inkscape:window-maximized="1"
     fit-margin-top="0"
     fit-margin-left="0"
     fit-margin-right="0"
     fit-margin-bottom="0" />
  <metadata
     id="metadata3040">
    <rdf:RDF>
      <cc:Work
         rdf:about="">
        <dc:format>image/svg+xml</dc:format>
        <dc:type
           rdf:resource="http://purl.org/dc/dcmitype/StillImage" />
        <dc:title />
      </cc:Work>
    </rdf:RDF>
  </metadata>
  <g
     id="layer1"
     inkscape:label="Layer 1"
     inkscape:groupmode="layer"
     transform="translate(-87.737391,169.7818)">
    <path
       inkscape:connector-curvature="0"
       d="m 119.05743,-157.65829 c -3.54312,0 -4.41448,2.63236 -4.41448,5.88056 0,2.16547 -0.71948,4.05354 1.18137,5.07436 l 0,2.84543 c 0,0.7261 0.63054,1.30415 1.42257,1.30415 l 4.39702,0 c 0.79203,0 1.44843,-0.57805 1.44843,-1.30415 l 0,-3.34338 c 1.45138,-1.07828 0.37956,-2.73035 0.37956,-4.57641 0,-3.2482 -0.87136,-5.88056 -4.41447,-5.88056 z"
       id="path4873"
       style="fill:#ffaaaa"
       sodipodi:nodetypes="sscsssscss" />
    <path
       inkscape:connector-curvature="0"
       style="fill:#ffffff;stroke:none"
       d="M 93.84375,-165.53125 C 93.84375,-165.53125 94.03707,-162.63317 95.90625,-160 95.13952,-153.98573 95.45999,-150.60897 97,-146.53125 100.74802,-141.06951 104.02066,-133.51551 109.65625,-138.59375 113.43222,-147.40442 105.92692,-149.57004 101.53125,-150.59375 100.46818,-153.77482 98.47306,-156.16569 97.5625,-159.46875 97.35132,-159.72823 97.21199,-159.91817 97.09375,-160.09375 L 99.6875,-161.15625 99.875,-165.125 93.84375,-165.53125 Z"
       id="path4912" />
    <path
       style="fill:#ffffff;stroke:#ffffff;stroke-width:1.17241895px;stroke-linecap:butt;stroke-linejoin:miter;stroke-opacity:1"
       d="M 103.0721,-165.00746 92.979008,-162.46554"
       id="path4916"
       inkscape:connector-curvature="0" />
    <rect
       style="fill:#ffffff;fill-opacity:1;stroke:none"
       id="rect4918"
       width="2.0780551"
       height="7.9779997"
       x="-123.68041"
       y="-138.87442"
       ry="0.88154513"
       transform="matrix(-0.96971957,0.24422112,0.21858068,0.97581888,0,0)" />
    <rect
       ry="1.1408342"
       y="-140.04771"
       x="-126.0193"
       height="10.32457"
       width="2.0455573"
       id="rect4920"
       style="fill:#ffffff;fill-opacity:1;stroke:none"
       transform="matrix(-0.96971957,0.24422112,0.21858068,0.97581888,0,0)" />
    <rect
       ry="0.88154513"
       y="-138.87442"
       x="136.81813"
       height="7.9779997"
       width="2.0780551"
       id="rect4922"
       style="fill:#ffffff;fill-opacity:1;stroke:none"
       transform="matrix(0.96971957,-0.24422112,0.21858068,0.97581888,0,0)" />
    <rect
       style="fill:#ffffff;fill-opacity:1;stroke:none"
       id="rect4924"
       width="2.0455573"
       height="10.32457"
       x="134.47923"
       y="-140.04771"
       ry="1.1408342"
       transform="matrix(0.96971957,-0.24422112,0.21858068,0.97581888,0,0)" />
    <path
       id="path3158"
       style="fill:none;stroke:#00ffff;stroke-width:1px;stroke-linecap:butt;stroke-linejoin:miter;stroke-opacity:1"
       d="M 108.12854,-134.09513 C 108.12854,-134.09513 113.16616,-125.33406 113.16616,-122.92476 113.16616,-120.51547 113.82324,-112.6305 113.82324,-112.6305 116.63199,-112.29125 122.4706,-112.20422 125.887,-112.6305 125.887,-112.6305 126.54408,-120.51547 126.54408,-122.92476 126.54408,-125.33406 131.5817,-134.09513 131.5817,-134.09513"
       inkscape:connector-curvature="0"
       sodipodi:nodetypes="csccsc" />
    <path
       inkscape:connector-curvature="0"
       id="path3230"
       d="M 143.79387,-164.69689 C 143.79387,-164.69689 143.60055,-161.79881 141.73137,-159.16564 142.4981,-153.15137 142.17763,-149.77461 140.63762,-145.69689 136.8896,-140.23515 133.61696,-132.68115 127.98137,-137.75939 124.2054,-146.57006 131.7107,-148.73568 136.10637,-149.75939 137.16944,-152.94046 139.16456,-155.33133 140.07512,-158.63439 140.2863,-158.89387 140.42563,-159.08381 140.54387,-159.25939 L 137.95012,-160.32189 137.76262,-164.29064 143.79387,-164.69689 Z"
       style="fill:#ffffff;stroke:none" />
    <path
       inkscape:connector-curvature="0"
       id="path3234"
       d="M 134.56552,-164.1731 144.65861,-161.63118"
       style="fill:#ffffff;stroke:#ffffff;stroke-width:1.17241895px;stroke-linecap:butt;stroke-linejoin:miter;stroke-opacity:1" />
    <rect
       ry="0.88154513"
       y="-196.12134"
       x="108.47387"
       height="7.9779997"
       width="2.0780551"
       id="rect3236"
       style="fill:#ffffff;fill-opacity:1;stroke:none"
       transform="matrix(0.96971957,0.24422112,-0.21858068,0.97581888,0,0)" />
    <rect
       style="fill:#ffffff;fill-opacity:1;stroke:none"
       id="rect3238"
       width="2.0455573"
       height="10.32457"
       x="106.13497"
       y="-197.29462"
       ry="1.1408342"
       transform="matrix(0.96971957,0.24422112,-0.21858068,0.97581888,0,0)" />
    <rect
       transform="matrix(-0.96971957,-0.24422112,-0.21858068,0.97581888,0,0)"
       style="fill:#ffffff;fill-opacity:1;stroke:none"
       id="rect3240"
       width="2.0780551"
       height="7.9779997"
       x="-95.336151"
       y="-196.12134"
       ry="0.88154513" />
    <rect
       transform="matrix(-0.96971957,-0.24422112,-0.21858068,0.97581888,0,0)"
       ry="1.1408342"
       y="-197.29462"
       x="-97.675041"
       height="10.32457"
       width="2.0455573"
       id="rect3242"
       style="fill:#ffffff;fill-opacity:1;stroke:none" />
    <path
       style="fill:#ffffff;fill-rule:evenodd;stroke:#ffffff;stroke-width:0.61585319px;stroke-linecap:round;stroke-linejoin:round;stroke-opacity:1"
       d="M 123.24148,-160.63096 C 124.54241,-165.73211 128.79971,-166.82722 129.23708,-166.10407 130.65114,-163.76604 126.96293,-163.49149 126.23928,-163.76604 124.90067,-164.2739 123.29253,-160.42576 123.29804,-160.41841"
       id="path4176"
       inkscape:connector-curvature="0"
       sodipodi:nodetypes="cssc" />
    <path
       sodipodi:nodetypes="cssc"
       inkscape:connector-curvature="0"
       id="path4178"
       d="M 120.36819,-161.98246 C 119.90735,-165.74084 122.14137,-167.63336 122.57136,-167.27026 123.96154,-166.09632 121.86443,-164.90657 121.37417,-164.89225 120.46729,-164.86574 120.44736,-161.85949 120.45235,-161.85609"
       style="fill:#ffffff;fill-rule:evenodd;stroke:#ffffff;stroke-width:0.41621017px;stroke-linecap:round;stroke-linejoin:round;stroke-opacity:1" />
  </g>
</svg>
