<?xml version="1.0" encoding="UTF-8" standalone="no"?>
<!-- Created with Inkscape (http://www.inkscape.org/) -->

<svg
   xmlns:dc="http://purl.org/dc/elements/1.1/"
   xmlns:cc="http://creativecommons.org/ns#"
   xmlns:rdf="http://www.w3.org/1999/02/22-rdf-syntax-ns#"
   xmlns:svg="http://www.w3.org/2000/svg"
   xmlns="http://www.w3.org/2000/svg"
   xmlns:xlink="http://www.w3.org/1999/xlink"
   xmlns:sodipodi="http://sodipodi.sourceforge.net/DTD/sodipodi-0.dtd"
   xmlns:inkscape="http://www.inkscape.org/namespaces/inkscape"
   width="200mm"
   height="200mm"
   viewBox="0 0 708.66142 708.66141"
   id="svg2"
   version="1.1"
   inkscape:version="0.91 r13725"
   sodipodi:docname="writeModel.svg">
  <defs
     id="defs4">
    <inkscape:path-effect
       effect="spiro"
       id="path-effect4246"
       is_visible="true" />
    <inkscape:path-effect
       effect="spiro"
       id="path-effect4238"
       is_visible="true" />
    <radialGradient
       cx="63.912209"
       cy="115.70919"
       fx="14.046639"
       fy="115.70919"
       gradientTransform="matrix(5.8928396,0,0,0.43651722,0.91219426,955.18719)"
       gradientUnits="userSpaceOnUse"
       id="radialGradient3297"
       inkscape:collect="always"
       r="63.912209"
       xlink:href="#linearGradient3291" />
    <linearGradient
       id="linearGradient3291"
       inkscape:collect="always">
      <stop
         id="stop3293"
         offset="0"
         style="stop-color:#000000;stop-opacity:1;" />
      <stop
         id="stop3295"
         offset="1"
         style="stop-color:#000000;stop-opacity:0;" />
    </linearGradient>
    <radialGradient
       cx="42.617531"
       cy="120.64188"
       fx="42.617531"
       fy="120.64188"
       gradientTransform="matrix(9.1967715,8.6673201,-87.412669,75.023007,10332.108,-8542.8337)"
       gradientUnits="userSpaceOnUse"
       id="radialGradient3317"
       inkscape:collect="always"
       r="3.406888"
       xlink:href="#linearGradient2257" />
    <linearGradient
       id="linearGradient2257">
      <stop
         id="stop2259"
         offset="0"
         style="stop-color:#b4942a;stop-opacity:1;" />
      <stop
         id="stop2261"
         offset="1"
         style="stop-color:#e4dcc9;stop-opacity:1" />
    </linearGradient>
    <radialGradient
       cx="15.727077"
       cy="58.089687"
       fx="15.727077"
       fy="58.089687"
       gradientTransform="matrix(11.563247,9.8599023,-157.19798,152.25606,9294.6982,-8313.6322)"
       gradientUnits="userSpaceOnUse"
       id="radialGradient3314"
       inkscape:collect="always"
       r="2.6143966"
       xlink:href="#linearGradient2598" />
    <linearGradient
       id="linearGradient2598">
      <stop
         id="stop2600"
         offset="0"
         style="stop-color:#252525;stop-opacity:1;" />
      <stop
         id="stop2606"
         offset="0.5"
         style="stop-color:#252525;stop-opacity:1;" />
      <stop
         id="stop2608"
         offset="0.75"
         style="stop-color:#252525;stop-opacity:1;" />
      <stop
         id="stop2602"
         offset="1"
         style="stop-color:#000000;stop-opacity:1;" />
    </linearGradient>
    <radialGradient
       cx="36.675648"
       cy="95.769279"
       fx="16.217354"
       fy="64.141281"
       gradientTransform="matrix(0.39332501,0.33903708,-7.8988035,7.49156,1161.5958,-93.011321)"
       gradientUnits="userSpaceOnUse"
       id="radialGradient3311"
       inkscape:collect="always"
       r="47.746403"
       xlink:href="#linearGradient3058" />
    <linearGradient
       id="linearGradient3058">
      <stop
         id="stop3060"
         offset="0"
         style="stop-color:#9a7600;stop-opacity:1;" />
      <stop
         id="stop3066"
         offset="0.09292036"
         style="stop-color:#e3ad00;stop-opacity:1;" />
      <stop
         id="stop3070"
         offset="0.5043171"
         style="stop-color:#ffcd2c;stop-opacity:1;" />
      <stop
         id="stop3068"
         offset="0.91571385"
         style="stop-color:#e3ad00;stop-opacity:1;" />
      <stop
         id="stop3062"
         offset="1"
         style="stop-color:#b98d00;stop-opacity:1;" />
    </linearGradient>
    <linearGradient
       gradientTransform="matrix(6.3957051,5.3660524,-5.9485682,5.7694006,651.86092,206.34533)"
       gradientUnits="userSpaceOnUse"
       id="linearGradient3305"
       inkscape:collect="always"
       x1="11.326384"
       x2="14.493531"
       xlink:href="#linearGradient3058"
       y1="57.383999"
       y2="57.383999" />
    <radialGradient
       cx="34.677639"
       cy="7.4622769"
       fx="34.677639"
       fy="7.4622769"
       gradientTransform="matrix(4.2689699,-4.0279029,-0.17436853,-0.14969303,294.66171,699.21087)"
       gradientUnits="userSpaceOnUse"
       id="radialGradient1695"
       inkscape:collect="always"
       r="47.595196"
       xlink:href="#linearGradient3303" />
    <linearGradient
       id="linearGradient3303">
      <stop
         id="stop3305"
         offset="0"
         style="stop-color:#ffffff;stop-opacity:0.68345326;" />
      <stop
         id="stop3307"
         offset="1"
         style="stop-color:#ffffff;stop-opacity:0;" />
    </linearGradient>
    <radialGradient
       cx="34.677639"
       cy="7.4622769"
       fx="34.677639"
       fy="7.4622769"
       gradientTransform="matrix(-5.2710425,5.1122855,0.0565352,0.04806852,583.52102,436.07738)"
       gradientUnits="userSpaceOnUse"
       id="radialGradient1697"
       inkscape:collect="always"
       r="47.595196"
       xlink:href="#linearGradient3303" />
    <radialGradient
       cx="49.009884"
       cy="8.4953117"
       fx="47.370888"
       fy="6.7701697"
       gradientTransform="matrix(8.3068473,6.9492872,-2.9023532,2.8231347,238.14497,63.419576)"
       gradientUnits="userSpaceOnUse"
       id="radialGradient3300"
       inkscape:collect="always"
       r="3.9750404"
       xlink:href="#linearGradient3225" />
    <linearGradient
       id="linearGradient3225">
      <stop
         id="stop3227"
         offset="0"
         style="stop-color:#ffffff;stop-opacity:1;" />
      <stop
         id="stop3229"
         offset="1"
         style="stop-color:#aeaeae;stop-opacity:1;" />
    </linearGradient>
    <radialGradient
       cx="49.011971"
       cy="2.6743078"
       fx="49.011971"
       fy="2.6743078"
       gradientTransform="matrix(8.306856,6.9492958,-0.9372174,0.91163719,261.04178,41.148356)"
       gradientUnits="userSpaceOnUse"
       id="radialGradient3293"
       inkscape:collect="always"
       r="1.7246193"
       xlink:href="#linearGradient3207" />
    <linearGradient
       id="linearGradient3207">
      <stop
         id="stop3209"
         offset="0"
         style="stop-color:#ffffff;stop-opacity:1;" />
      <stop
         id="stop3211"
         offset="1"
         style="stop-color:#252525;stop-opacity:0;" />
    </linearGradient>
    <linearGradient
       gradientTransform="matrix(8.3068473,6.9492872,-7.7036739,7.4933926,278.93356,23.744235)"
       gradientUnits="userSpaceOnUse"
       id="linearGradient3290"
       inkscape:collect="always"
       x1="48.498562"
       x2="48.732723"
       xlink:href="#linearGradient3303"
       y1="0.81150496"
       y2="2.3657269" />
    <linearGradient
       gradientUnits="userSpaceOnUse"
       id="linearGradient3346"
       inkscape:collect="always"
       x1="49.15303"
       x2="82.484642"
       xlink:href="#linearGradient2257"
       y1="75.310318"
       y2="75.310318"
       gradientTransform="matrix(5.8928396,0,0,5.2964099,-53.37352,353.79451)" />
    <radialGradient
       cx="49.011971"
       cy="2.6743078"
       fx="49.011971"
       fy="2.6743078"
       gradientTransform="matrix(5.3328921,5.0947485,-0.73609801,0.52683942,382.37823,113.68681)"
       gradientUnits="userSpaceOnUse"
       id="radialGradient2959"
       inkscape:collect="always"
       r="1.7246193"
       xlink:href="#linearGradient3207" />
    <radialGradient
       cx="49.011971"
       cy="2.6743078"
       fx="49.011971"
       fy="2.6743078"
       gradientTransform="matrix(-5.7839183,-4.6803901,-0.5699031,0.67297754,975.55573,631.54847)"
       gradientUnits="userSpaceOnUse"
       id="radialGradient2963"
       inkscape:collect="always"
       r="1.7246193"
       xlink:href="#linearGradient3207" />
  </defs>
  <sodipodi:namedview
     id="base"
     pagecolor="#ffffff"
     bordercolor="#666666"
     borderopacity="1.0"
     inkscape:pageopacity="0.0"
     inkscape:pageshadow="2"
     inkscape:zoom="0.7"
     inkscape:cx="-54.48513"
     inkscape:cy="120.10332"
     inkscape:document-units="px"
     inkscape:current-layer="layer1"
     showgrid="false"
     inkscape:window-width="2560"
     inkscape:window-height="1547"
     inkscape:window-x="-8"
     inkscape:window-y="-8"
     inkscape:window-maximized="1" />
  <metadata
     id="metadata7">
    <rdf:RDF>
      <cc:Work
         rdf:about="">
        <dc:format>image/svg+xml</dc:format>
        <dc:type
           rdf:resource="http://purl.org/dc/dcmitype/StillImage" />
        <dc:title></dc:title>
      </cc:Work>
    </rdf:RDF>
  </metadata>
  <g
     inkscape:label="Layer 1"
     inkscape:groupmode="layer"
     id="layer1"
     transform="translate(0,-343.70079)">
    <path
       style="fill:none;fill-rule:evenodd;stroke:#f2f2f2;stroke-width:26.49834251;stroke-linecap:butt;stroke-linejoin:miter;stroke-miterlimit:4;stroke-dasharray:none;stroke-opacity:1"
       d="M 42.410684,993.34847 C 46.758659,967.8471 53.139862,945.54278 59.229828,922.85381 62.234028,911.66128 65.541087,901.02072 68.340203,889.46159 85.128364,820.13372 68.904532,880.02194 83.757744,817.11182 87.054374,803.14913 91.110016,790.48194 94.269711,776.29912 98.746792,756.20304 101.42086,732.72165 104.78169,711.36984 106.55144,700.12627 108.57549,689.17335 110.38806,677.97765 112.45768,665.19419 113.76675,655.8666 115.29364,642.73032 116.4808,632.51688 115.71119,635.34872 116.69523,622.32398 117.61765,610.11517 117.39604,623.347 117.39604,611.19326 123.40209,623.91243 119.20731,612.69728 123.7032,635.30984 124.97199,641.69134 126.5303,647.63978 127.90798,653.86107 148.55287,747.08804 123.62439,633.69063 141.92394,722.5006 142.48324,725.21492 143.54301,727.10633 144.02633,729.92108 145.40536,737.95223 145.49335,745.62803 146.12872,754.03768 146.55109,759.62808 147.10795,765.14336 147.53032,770.73378 147.80898,774.42215 148.08973,778.12174 148.23112,781.8645 148.39383,786.17164 148.23112,790.52173 148.23112,794.85035 148.23112,802.27084 148.23112,809.69134 148.23112,817.11182 148.23112,821.44046 148.23112,825.76906 148.23112,830.09768 148.23112,831.33443 148.1178,832.60812 148.23112,833.80793 148.3578,835.14936 148.76673,836.20641 148.93191,837.51816 149.23649,839.93697 149.39911,842.46516 149.63272,844.93867 150.3335,849.26727 151.07438,853.55195 151.73511,857.92453 151.80635,858.39602 153.11454,868.97703 153.1367,869.05525 153.45011,870.16144 154.30469,869.67364 154.53829,870.91038 154.85171,872.56964 154.31668,874.71582 154.53829,876.47574 154.61216,877.06239 155.07392,876.03847 155.23909,876.47574 155.26163,876.53539 155.23909,881.5912 155.23909,882.04111 155.23909,886.39171 155.07392,881.16659 155.93989,885.75135 156.04436,886.30444 155.77471,887.16923 155.93989,887.60648 156.10507,888.04375 156.47551,887.16923 156.6407,887.60648 156.78395,887.98572 156.50176,892.43631 156.6407,893.17184 156.78843,893.95402 157.19375,894.24478 157.34148,895.02696 157.44595,895.58006 157.34148,896.26372 157.34148,896.8821 157.34148,898.11884 157.22818,899.3925 157.34148,900.59234 157.46817,901.93378 157.84829,903.01875 158.04229,904.30258 159.0869,911.21576 159.66141,917.65654 160.84548,924.70892 161.26976,927.23602 161.70958,929.75805 162.24707,932.1294 162.41703,932.87931 162.8434,933.1549 162.94787,933.98454 163.09561,935.1578 162.73893,936.58859 162.94787,937.69477 163.05233,938.24787 163.43972,937.97133 163.64866,937.69477 163.94415,937.3037 164.11586,936.45803 164.34946,935.83967 167.42604,927.69549 164.4448,936.23807 168.55424,919.14355 169.18131,916.53507 170.02957,914.33156 170.65664,911.72306 171.66776,907.517 172.52543,903.06583 173.45983,898.73721 176.86318,882.97111 176.68302,884.73407 179.767,865.34501 183.23186,843.56147 180.67744,856.6614 183.97179,831.95282 184.56389,827.51189 185.31668,823.22809 186.07419,818.96696 188.53676,805.11448 190.96168,793.45246 193.78296,780.00939 194.69759,775.65129 195.70496,771.42964 196.58615,767.02353 197.75415,760.83977 198.92214,754.65603 200.09014,748.47231 201.02453,744.76206 202.0947,741.26772 202.89333,737.34156 205.42316,724.9045 204.16396,725.43633 207.09812,715.0801 207.69276,712.98126 208.69061,711.7644 209.2005,709.51473 211.3029,700.23912 208.14931,709.51473 209.2005,703.94936 209.34825,703.16717 209.75357,702.87645 209.90131,702.09425 210.88242,696.89991 211.02259,690.59247 212.0037,685.39813 212.42418,683.17199 213.68561,682.05892 214.10609,679.83279 214.31502,678.7266 213.77573,676.99704 214.10609,676.12254 214.27126,675.68528 214.6417,676.55977 214.80689,676.12254 214.97207,675.68528 214.6417,674.70466 214.80689,674.2674 214.97207,673.83015 215.34251,674.70466 215.50769,674.2674 215.67286,673.83015 215.40322,672.96536 215.50769,672.41227 215.80317,670.84792 216.6138,670.26641 216.90929,668.70203 217.01375,668.14894 216.7441,667.28418 216.90929,666.84692 218.35925,663.00859 216.85261,672.71238 218.31087,664.99179 218.41535,664.43869 218.1457,663.57392 218.31087,663.13668 218.47605,662.69942 218.80274,663.41323 219.01167,663.13668 219.30715,662.74558 219.41698,661.67262 219.71246,661.28155 219.92141,661.005 220.20434,661.55809 220.41327,661.28155 220.94831,660.57338 222.55352,653.96129 223.21646,655.71617 223.38164,656.15344 223.1297,656.99715 223.21646,657.57131 223.60444,660.13898 224.21266,662.44306 224.61805,664.99179 226.08255,674.19904 227.42124,683.54302 228.82283,692.81864 237.77267,752.04768 234.11341,721.15743 238.634,770.73378 239.31199,778.16908 239.73284,785.82254 240.73639,792.99524 242.87835,808.3045 246.33757,822.17554 248.44517,837.51816 250.86903,855.16309 252.2606,873.72725 254.75235,891.31673 255.63575,897.55276 256.43037,903.91098 257.55554,909.86796 258.30887,913.85633 259.44782,917.24774 260.35872,920.99868 261.55043,925.90588 262.67957,930.91798 263.86272,935.83967 264.3149,937.72067 264.88764,939.41084 265.26431,941.40502 265.59467,943.15405 265.55535,945.34335 265.96511,946.97039 266.88136,950.60859 268.55284,952.60781 269.4691,956.246 269.59867,956.76054 269.30392,957.66388 269.4691,958.10112 269.63428,958.53837 270.00472,957.66388 270.16989,958.10112 270.33507,958.53837 270.16989,959.33786 270.16989,959.95612 270.16989,960.57451 270.16989,961.19289 270.16989,961.81128 270.16989,962.42967 270.00472,963.22934 270.16989,963.66644 270.19243,963.72617 272.10233,963.66644 272.27229,963.66644 272.73948,963.66644 273.36135,964.58584 273.67388,963.66644 277.56397,952.22463 284.26694,918.85713 286.28824,909.86796 294.52965,873.2165 304.39515,835.8192 309.41455,794.85035 310.90024,782.72406 311.57948,769.9933 312.91855,757.74791 313.21151,755.06888 318.55521,712.19959 319.92653,703.94936 321.21561,689.20428 325.31462,678.30203 327.63529,664.99179 328.25442,661.4408 328.43686,657.43492 329.03689,653.86107 329.37896,651.82364 330.02061,650.23152 330.43848,648.29569 330.9568,645.89461 331.32177,643.27629 331.84007,640.87521 332.25795,638.93938 332.79529,637.20052 333.24168,635.30984 333.96359,632.25221 334.52681,628.91879 335.34407,626.03422 335.93871,623.93539 336.8704,622.60372 337.44646,620.46884 338.05367,618.21853 338.31057,615.41973 338.84805,613.04836 339.01803,612.29848 339.40111,611.97544 339.54886,611.19326 339.87921,609.44421 339.8696,607.30469 340.24965,605.62788 340.92952,602.62833 342.25997,601.00583 343.05284,598.2074 343.36625,597.10121 343.28644,595.11552 343.75364,594.49713 344.04912,594.10605 344.30203,595.57639 344.45444,596.35226 347.34625,611.07361 350.27024,625.76974 352.86401,640.87521 358.44881,673.39971 363.04578,707.11175 368.98236,739.19669 404.78609,932.70218 371.81739,740.41019 397.01425,870.91038 399.20596,882.26174 400.94385,894.20729 402.62063,906.15769 410.66505,963.48983 401.69958,909.33788 409.62861,961.81128 410.40459,966.94667 411.49741,971.70547 412.4318,976.6523 423.601,933.64631 416.69296,959.17408 429.25094,915.43331 430.66441,910.51005 432.15996,905.73752 433.45572,900.59234 434.03522,898.29133 434.31983,895.54321 434.85732,893.17184 436.44482,886.16791 434.63262,901.15185 436.95972,885.75135 437.13323,884.60307 436.95972,883.27786 436.95972,882.04111 451.13764,823.06353 431.72845,905.34753 446.77088,835.66305 448.46623,827.80931 454.3006,809.59767 455.88125,804.12597 458.32259,795.67488 460.31634,786.32729 462.88922,778.15426 463.94668,774.79515 465.47696,772.51683 466.39321,768.87864 467.38005,764.96019 467.5803,759.93108 468.49561,755.89279 470.9897,744.88907 472.97258,742.43486 474.80279,731.7762 475.41413,728.21583 475.65568,724.27669 476.20438,720.64546 476.59237,718.07781 477.13877,715.69847 477.60597,713.22498 477.83958,711.98822 478.01703,710.66523 478.30677,709.51473 478.49002,708.78708 478.85983,708.44179 479.00757,707.6596 479.1465,706.92406 478.8643,702.47349 479.00757,702.09425 479.17275,701.657 479.54319,702.53148 479.70837,702.09425 480.05877,701.16667 479.35797,697.45643 479.70837,696.52888 479.87355,696.09161 480.24399,696.96614 480.40917,696.52888 480.55243,696.14961 480.27024,691.69905 480.40917,690.9635 480.5569,690.18131 480.87637,689.72676 481.10996,689.10839 481.34356,687.87164 481.61677,686.68197 481.81077,685.39813 482.08512,683.58253 482.2372,681.64839 482.51155,679.83279 483.17228,675.46021 484.00598,671.27278 484.61395,666.84692 484.94311,664.4508 485.01018,661.84521 485.31475,659.42642 485.71255,656.26727 486.15377,653.12929 486.71634,650.15083 487.65344,645.18955 489.99991,635.84101 490.92113,629.74446 496.07195,595.65685 489.69477,630.90378 493.72431,614.9035 493.85391,614.38897 493.49072,613.04836 493.72431,613.04836 494.05468,613.04836 494.2927,614.1023 494.42512,614.9035 495.93777,624.05603 497.34019,633.34165 498.6299,642.73032 501.07878,660.55733 503.19685,678.69433 505.63788,696.52888 532.88933,895.6323 506.38848,697.52078 520.35462,802.27084 521.75622,812.7832 523.26654,823.19837 524.55942,833.80793 525.60361,842.3768 526.37229,851.16607 527.3626,859.77964 528.00785,865.39189 528.82819,870.85673 529.465,876.47574 530.23033,883.22895 530.83569,890.10281 531.56738,896.8821 532.23739,903.08971 533.01703,909.21282 533.66979,915.43331 534.18535,920.34653 534.49131,925.41175 535.07138,930.27429 535.89473,937.1762 536.96457,943.85537 537.87457,950.68064 538.36628,954.36862 538.6648,958.25098 539.27617,961.81128 539.83981,965.09385 540.94782,967.66634 541.37855,971.08708 541.67403,973.43362 541.19531,976.08196 541.37855,978.50746 541.44334,979.36504 541.89611,979.63488 542.07936,980.36262 542.36909,981.51316 542.61497,982.7611 542.78014,984.07294 542.85402,984.65938 542.61497,985.49073 542.78014,985.92783 542.94533,986.3652 543.31577,985.49073 543.48095,985.92783 543.81131,986.80256 543.27201,988.53202 543.48095,989.63815 543.57399,990.13083 545.39728,994.95742 545.58334,995.20363 545.74041,995.4114 548.21999,995.20363 548.38653,995.20363 548.85372,995.20363 549.38248,995.81708 549.78812,995.20363 551.08681,993.23913 552.27588,990.68844 553.29212,987.78299 571.77351,934.94604 562.58008,960.2374 576.41843,909.86796 599.11973,827.23879 580.75464,896.98997 599.54475,830.09768 603.14197,817.29171 606.67564,804.35234 610.05671,791.14012 611.58459,785.16963 613.08613,779.09456 614.26151,772.58889 616.41917,760.6463 618.60977,740.65936 620.56868,728.06597 621.16533,724.23023 622.02263,720.71158 622.67108,716.93521 623.19162,713.90366 623.67487,710.81877 624.07267,707.6596 624.22842,706.4227 625.02434,696.46032 625.47427,694.67375 625.60384,694.15924 626.03491,694.17906 626.17505,694.67375 626.80187,696.88611 627.06932,699.6768 627.57666,702.09425 639.98819,761.23378 625.51285,687.13883 641.5926,780.00939 645.44699,802.27084 650.28249,824.53231 654.20696,846.79378 655.71162,855.32894 656.88858,864.25337 658.41175,872.76549 658.99485,876.02411 659.86189,878.87567 660.51414,882.04111 661.26451,885.68279 661.91574,889.46159 662.61653,893.17184 662.85013,894.40858 663.19065,895.54063 663.31734,896.8821 663.43064,898.08191 663.31734,899.3556 663.31734,900.59234"
       id="path5175"
       inkscape:connector-curvature="0" />
    <path
       d="M 246.52958,371.17359 246.52958,356.37168 246.52958,371.17359 Z"
       id="path2276"
       sodipodi:nodetypes="ccc"
       style="fill:#ffffff;fill-opacity:0.75688076;fill-rule:nonzero;stroke:none;stroke-width:0.5;stroke-linecap:round;stroke-linejoin:round;stroke-miterlimit:4;stroke-dasharray:none;stroke-dashoffset:4;stroke-opacity:1"
       inkscape:connector-curvature="0" />
    <path
       inkscape:connector-curvature="0"
       id="path3289"
       d="M 754.16099,1005.6964 A 376.62441,27.898808 0 0 1 377.53658,1033.5951 376.62441,27.898808 0 0 1 0.91218426,1005.6964 376.62441,27.898808 0 0 1 377.53658,977.79759 376.62441,27.898808 0 0 1 754.16099,1005.6964 Z"
       style="opacity:0.38139535;fill:url(#radialGradient3297);fill-opacity:1;fill-rule:nonzero;stroke:none;stroke-width:0;stroke-linecap:round;stroke-linejoin:round;stroke-miterlimit:4;stroke-dasharray:none;stroke-dashoffset:4;stroke-opacity:1" />
    <path
       d="M 632.71236,355.94481 C 635.86191,352.88112 656.16921,354.66113 677.49516,372.50185 699.03033,390.51747 703.11223,407.7017 699.16697,411.53907 696.59918,414.03686 694.03131,416.53466 691.46349,419.03247 669.31178,400.50104 647.16026,381.96963 625.00865,363.43821 627.57652,360.9404 630.14438,358.44261 632.71236,355.94481 632.71236,355.94481 632.71236,355.94481 632.71236,355.94481"
       id="path3180"
       sodipodi:nodetypes="czccccc"
       style="fill:#000000;fill-opacity:1;fill-rule:evenodd;stroke:none;stroke-width:1px;stroke-linecap:butt;stroke-linejoin:miter;stroke-opacity:1"
       inkscape:connector-curvature="0" />
    <path
       d="M 27.071474,1006.0963 208.17526,890.05342 209.20206,889.05462 143.83806,832.39928 142.44632,833.75253 27.071474,1006.0963 Z"
       id="path3299"
       sodipodi:nodetypes="cccccc"
       style="fill:#000000;fill-opacity:1;fill-rule:evenodd;stroke:#000000;stroke-width:0;stroke-linecap:butt;stroke-linejoin:miter;stroke-miterlimit:4;stroke-dasharray:none;stroke-opacity:1"
       inkscape:connector-curvature="0" />
    <path
       d="M 37.539,996.62889 206.42611,888.47964 207.45284,887.4809 145.58729,833.97299 144.19548,835.32629 37.539,996.62889 Z"
       id="path2247"
       sodipodi:nodetypes="cccccc"
       style="fill:url(#radialGradient3317);fill-opacity:1;fill-rule:evenodd;stroke:#000000;stroke-width:0;stroke-linecap:butt;stroke-linejoin:miter;stroke-miterlimit:4;stroke-dasharray:none;stroke-opacity:1"
       inkscape:connector-curvature="0" />
    <path
       d="M 170.59711,866.48935 C 178.79379,873.34642 187.17571,870.77579 190.10569,873.22684 190.57916,873.62292 190.89356,874.16378 191.11615,874.74187 L 678.45151,399.78417 646.23814,372.83536 157.97754,848.69288 C 159.44658,848.5864 160.74944,848.66803 161.67614,849.44339 164.35421,851.68387 162.36242,859.60037 170.59711,866.48935 Z"
       id="rect2192"
       sodipodi:nodetypes="csccccsz"
       style="fill:url(#radialGradient3314);fill-opacity:1;fill-rule:nonzero;stroke:none;stroke-width:0.5;stroke-linecap:round;stroke-linejoin:round;stroke-miterlimit:4;stroke-dasharray:none;stroke-dashoffset:4;stroke-opacity:1"
       inkscape:connector-curvature="0" />
    <path
       d="M 208.51051,855.69447 189.42775,874.25628 C 191.9888,876.78775 188.47545,883.76102 193.39814,887.87914 198.70326,892.31732 204.46336,887.28695 207.91092,890.13732 L 227.22495,871.35033 208.51051,855.69447 Z"
       id="path2233"
       sodipodi:nodetypes="ccsccc"
       style="opacity:0.35348834;fill:#000000;fill-opacity:1;fill-rule:nonzero;stroke:none;stroke-width:0.5;stroke-linecap:round;stroke-linejoin:round;stroke-miterlimit:4;stroke-dasharray:none;stroke-dashoffset:4;stroke-opacity:1"
       inkscape:connector-curvature="0" />
    <path
       d="M 677.27543,398.80038 190.31019,873.398 C 192.88527,875.94137 190.26428,882.06469 195.21233,886.20383 200.54452,890.66479 205.42398,886.49407 208.88905,889.35895 L 696.08554,414.53643 677.27543,398.80038 Z"
       id="rect2190"
       sodipodi:nodetypes="ccsccc"
       style="fill:url(#radialGradient3311);fill-opacity:1;fill-rule:nonzero;stroke:none;stroke-width:0.5;stroke-linecap:round;stroke-linejoin:round;stroke-miterlimit:4;stroke-dasharray:none;stroke-dashoffset:4;stroke-opacity:1"
       inkscape:connector-curvature="0" />
    <path
       d="M 170.95338,840.42756 161.16436,849.94939 160.79363,850.30183 C 162.98107,852.25493 159.78628,859.34967 166.80575,866.38611 L 167.21483,866.72826 170.12939,869.16649 170.53846,869.50873 C 178.92254,875.35877 186.52195,871.82547 189.45183,874.27644 L 199.81918,864.13949 170.95342,840.42758 Z"
       id="path2231"
       sodipodi:nodetypes="cccccccccc"
       style="opacity:0.38604653;fill:#252525;fill-opacity:1;fill-rule:nonzero;stroke:none;stroke-width:0.5;stroke-linecap:round;stroke-linejoin:round;stroke-miterlimit:4;stroke-dasharray:none;stroke-dashoffset:4;stroke-opacity:1"
       inkscape:connector-curvature="0" />
    <path
       d="M 152.33778,824.66721 142.42853,833.77752 C 142.53128,833.86299 141.72245,834.65679 141.82551,834.74306 143.92824,836.50209 141.0112,843.59336 144.50827,847.73269 L 144.8662,848.03205 146.45126,849.35816 146.65587,849.52917 C 151.60767,852.5079 158.25477,848.80153 160.79362,850.30185 L 171.05223,840.3233 152.33778,824.66723 Z"
       id="path2229"
       sodipodi:nodetypes="ccsccccccc"
       style="opacity:0.35348834;fill:#131313;fill-opacity:1;fill-rule:nonzero;stroke:none;stroke-width:0.5;stroke-linecap:round;stroke-linejoin:round;stroke-miterlimit:4;stroke-dasharray:none;stroke-dashoffset:4;stroke-opacity:1"
       inkscape:connector-curvature="0" />
    <path
       d="M 147.49687,846.91501 C 152.65792,851.13262 158.9441,847.15789 161.67614,849.44339 L 648.64147,374.84586 629.63081,358.94217 142.4342,833.76473 C 142.53863,833.85148 142.6411,833.93783 142.74581,834.02555 144.88183,835.8124 142.29727,842.66495 147.49687,846.91501 Z"
       id="rect1315"
       sodipodi:nodetypes="cccccsz"
       style="fill:url(#linearGradient3305);fill-opacity:1;fill-rule:nonzero;stroke:none;stroke-width:0.5;stroke-linecap:round;stroke-linejoin:round;stroke-miterlimit:4;stroke-dasharray:none;stroke-dashoffset:4;stroke-opacity:1"
       inkscape:connector-curvature="0" />
    <path
       inkscape:connector-curvature="0"
       id="rect2069"
       d="M 632.56707,356.22559 699.05227,411.7594 684.52726,425.80685 618.04207,370.27306 Z"
       style="opacity:1;fill:#000000;fill-opacity:1;stroke:none;stroke-width:1;stroke-linecap:round;stroke-linejoin:round;stroke-miterlimit:4;stroke-dasharray:none;stroke-dashoffset:4;stroke-opacity:1" />
    <path
       inkscape:connector-curvature="0"
       id="path3301"
       d="M 640.95723,364.41317 A 10.854541,278.32002 45.81802 0 0 433.01587,551.42616 10.854541,278.32002 45.81802 0 0 241.83938,752.41818 10.854541,278.32002 45.81802 0 0 449.78075,565.4052 10.854541,278.32002 45.81802 0 0 640.95723,364.41317 Z"
       style="fill:url(#radialGradient1695);fill-opacity:1;fill-rule:nonzero;stroke:none;stroke-width:0.2;stroke-linecap:round;stroke-linejoin:round;stroke-miterlimit:4;stroke-dasharray:none;stroke-dashoffset:4;stroke-opacity:1" />
    <path
       inkscape:connector-curvature="0"
       id="path3321"
       d="M 651.24671,369.73946 A 3.4310386,349.3872 45.709373 0 0 400.47576,609.58814 3.4310386,349.3872 45.709373 0 0 151.05343,857.63213 3.4310386,349.3872 45.709373 0 0 397.90603,621.68018 3.4310386,349.3872 45.709373 0 0 651.20634,369.92945"
       style="fill:url(#radialGradient1697);fill-opacity:1;fill-rule:nonzero;stroke:none;stroke-width:0.2;stroke-linecap:round;stroke-linejoin:round;stroke-miterlimit:4;stroke-dasharray:none;stroke-dashoffset:4;stroke-opacity:1" />
    <path
       d="M 598.63831,389.14135 C 589.24683,394.43786 580.3458,403.67019 575.5643,411.58551 L 628.98838,455.87229 652.06232,433.42813 598.63831,389.14135 Z M 646.44745,428.731 623.3735,451.17515 642.0894,466.83231 C 650.27009,462.41199 659.65649,453.61646 665.16339,444.38814 L 646.44745,428.731 Z"
       id="path2274"
       sodipodi:nodetypes="cccccccccc"
       style="fill:url(#radialGradient3300);fill-opacity:1;fill-rule:nonzero;stroke:none;stroke-width:0.5;stroke-linecap:round;stroke-linejoin:round;stroke-miterlimit:4;stroke-dasharray:none;stroke-dashoffset:4;stroke-opacity:1"
       inkscape:connector-curvature="0" />
    <path
       d="M 104.94685,956.42849 C 92.792919,955.35419 82.34795,938.79499 75.626299,933.72873 L 27.08107,1006.0598 104.94685,956.42849 Z"
       id="path2265"
       sodipodi:nodetypes="cccc"
       style="fill:#000000;fill-opacity:1;fill-rule:evenodd;stroke:none;stroke-width:0;stroke-linecap:butt;stroke-linejoin:miter;stroke-miterlimit:4;stroke-dasharray:none;stroke-opacity:1"
       inkscape:connector-curvature="0" />
    <path
       inkscape:connector-curvature="0"
       id="rect3205"
       d="M 653.67849,369.92988 682.33081,393.89965 676.51437,399.55736 647.86204,375.58758 Z"
       style="fill:url(#radialGradient3293);fill-opacity:1;fill-rule:nonzero;stroke:none;stroke-width:0;stroke-linecap:round;stroke-linejoin:round;stroke-miterlimit:4;stroke-dasharray:none;stroke-dashoffset:4;stroke-opacity:1" />
    <path
       d="M 670.83627,368.5085 C 684.63452,378.41057 694.37445,391.94161 694.90049,393.235 695.42673,394.5284 682.11521,379.35506 670.69377,372.32796 659.35966,365.3545 643.35194,364.94677 642.18398,364.10092 641.01601,363.25507 633.1538,355.53053 640.40752,355.91898 647.9946,356.32529 660.17835,360.86721 670.83627,368.5085 Z"
       id="path3233"
       sodipodi:nodetypes="cszsss"
       style="fill:url(#linearGradient3290);fill-opacity:1;fill-rule:evenodd;stroke:none;stroke-width:1px;stroke-linecap:butt;stroke-linejoin:miter;stroke-opacity:1"
       inkscape:connector-curvature="0" />
    <path
       d="M 244.34414,833.61897 C 242.84435,835.0763 241.99734,836.47124 241.80292,837.80369 241.6085,839.13637 242.08512,840.28313 243.23273,841.24416 244.37551,842.20112 245.67626,842.54269 247.13495,842.26903 248.59369,841.99511 250.07288,841.1297 251.5726,839.67242 253.08095,838.20674 253.9322,836.80773 254.12665,835.47512 254.321,834.1425 253.84675,832.99783 252.70408,832.04082 251.55642,831.07973 250.25328,830.73618 248.79459,831.00994 247.33588,831.28368 245.85242,832.15336 244.34414,833.61897 M 242.30909,831.91466 C 245.37675,828.93388 248.28055,827.01828 251.02062,826.16803 253.7606,825.31778 256.01329,825.63186 257.77844,827.11002 259.53876,828.58425 260.0506,830.58525 259.31406,833.11327 258.57743,835.64133 256.67531,838.39572 253.60764,841.37661 250.54854,844.34907 247.64476,846.26467 244.89612,847.12326 242.1561,847.97346 239.90593,847.66151 238.14556,846.18733 236.38042,844.70916 235.8661,842.706 236.60276,840.17805 237.34785,837.64173 239.24997,834.88733 242.30909,831.91466 M 271.07535,813.96499 283.25451,812.18588 278.12896,817.16647 269.94814,818.38572 269.24564,825.79843 264.09461,830.8037 265.15731,819.71555 253.46,821.43559 258.5983,816.44265 266.2864,815.31941 266.94482,808.33231 272.10869,803.31455 271.07535,813.96499 M 272.64552,802.79288 278.02666,797.56404 286.25293,796.59079 286.71826,789.11827 292.11218,783.87701 291.14148,796.22167 295.72958,800.06381 290.80848,804.84568 286.22049,801.00341 272.64552,802.79288 M 321.45497,773.6016 C 320.5682,775.07894 319.5496,776.53059 318.39903,777.95652 317.24845,779.38252 315.97012,780.77862 314.56416,782.14479 311.3857,785.23329 308.36201,787.25651 305.4929,788.21458 302.619,789.16863 300.31402,788.9186 298.57799,787.46487 296.82244,785.99474 296.38732,783.91911 297.27247,781.23806 298.15758,778.55682 300.24479,775.61826 303.53392,772.42214 304.80363,771.18839 306.08598,770.06544 307.38102,769.0534 308.68457,768.03303 309.98558,767.13402 311.28409,766.35594 L 313.53801,768.24356 C 312.12759,768.9894 310.80896,769.80443 309.58215,770.68861 308.36386,771.56447 307.22629,772.51592 306.16973,773.54262 304.20985,775.44703 303.01103,777.17938 302.57314,778.73971 302.13896,780.28775 302.50303,781.54843 303.66515,782.52159 304.81761,783.48679 306.21886,783.73513 307.86871,783.26685 309.51851,782.79855 311.28495,781.64953 313.16822,779.81953 313.6794,779.32283 314.1353,778.84902 314.5359,778.39812 314.94008,777.93506 315.27804,777.50112 315.5495,777.09649 L 313.43425,775.325 310.43046,778.24382 308.54866,776.66787 316.21773,769.2158 321.45497,773.6016 M 315.69464,760.96182 328.97496,748.05726 331.0975,749.8347 322.73819,757.95752 324.76599,759.65565 332.62683,752.01725 334.74941,753.79476 326.88859,761.43316 329.38323,763.52228 338.02374,755.12627 340.14635,756.90379 326.5848,770.08165 315.69464,760.96182 M 333.58921,743.57354 339.08538,738.23285 353.49513,737.74367 346.02592,731.48872 350.69128,726.9554 361.58145,736.07518 356.08527,741.4159 341.67549,741.90501 349.14475,748.16005 344.47937,752.69336 333.58921,743.57357 M 364.57232,713.46708 370.0685,708.12649 384.47823,707.63719 377.00902,701.38231 381.67437,696.84891 392.56454,705.96871 387.06839,711.30942 372.65861,711.79853 380.12785,718.05358 375.46251,722.58691 364.57232,713.46711 M 391.24273,687.19497 C 393.05779,685.43139 394.75918,684.26627 396.34706,683.69979 397.94351,683.12517 399.20362,683.2246 400.12757,683.99835 401.05146,684.77209 401.25683,685.89214 400.74365,687.35851 400.23043,688.82499 399.06209,690.44414 397.23854,692.21605 395.41501,693.98804 393.70747,695.16341 392.1159,695.74214 390.5329,696.31264 389.2794,696.21103 388.35551,695.43734 387.43155,694.66361 387.22382,693.5415 387.73213,692.071 388.24898,690.59228 389.41924,688.96699 391.24273,687.19499 M 392.88424,698.09674 403.40367,687.87497 404.86246,689.0966 394.34301,699.31843 392.88424,698.09674 M 392.48275,688.23339 C 391.76702,688.929 391.36632,689.59547 391.28066,690.23286 391.20354,690.86204 391.44707,691.41279 392.01114,691.88517 392.5752,692.35757 393.19974,692.5337 393.8847,692.41354 394.57816,692.28519 395.2828,691.87319 395.99853,691.17759 396.70583,690.49041 397.10043,689.83425 397.18241,689.20913 397.27284,688.57578 397.03605,688.0229 396.472,687.55051 395.90793,687.07812 395.27671,686.90412 394.57837,687.02845 393.88859,687.14457 393.19006,687.54623 392.48275,688.23339 M 425.08935,663.74129 C 426.56569,662.64986 427.87206,661.97871 429.00836,661.72783 430.14839,661.46465 431.08067,661.63654 431.80524,662.24323 432.88475,663.14723 432.98224,664.53923 432.0977,666.41922 431.2083,668.29516 429.37464,670.5828 426.59675,673.28209 425.6168,674.2343 424.58645,675.15201 423.50554,676.03511 422.4381,676.91404 421.33296,677.74599 420.1902,678.53099 L 418.02376,676.71672 C 419.20667,676.04245 420.31779,675.32339 421.35719,674.55973 422.40024,673.7837 423.36066,672.96928 424.23834,672.11644 425.54206,670.8496 426.41021,669.77288 426.84272,668.88638 427.28369,667.99156 427.26348,667.3426 426.7821,666.93942 426.28609,666.52407 425.55377,666.55824 424.58513,667.04206 423.62014,667.51349 422.44319,668.42405 421.05423,669.7737 L 419.08584,671.6864 417.2769,670.17154 419.34755,668.15947 C 420.58312,666.95887 421.39399,665.97302 421.78016,665.20182 422.16148,664.42666 422.12602,663.84967 421.67392,663.47098 421.25564,663.12073 420.63837,663.1356 419.8218,663.51541 419.0053,663.89538 418.06021,664.60698 416.98651,665.65022 416.19408,666.42034 415.44414,667.24143 414.73671,668.11348 414.02934,668.98566 413.37483,669.89437 412.77319,670.83963 L 410.71628,669.11707 C 411.53206,668.04284 412.37824,667.00949 413.25481,666.01691 414.13138,665.02442 415.02986,664.08106 415.95012,663.18675 418.42982,660.77732 420.51651,659.17178 422.21044,658.37038 423.90797,657.55664 425.22355,657.54071 426.15722,658.32268 426.79424,658.8562 427.02303,659.57967 426.84356,660.49305 426.65911,661.40231 426.07445,662.48512 425.08946,663.74135"
       id="text3284"
       style="font-style:normal;font-variant:normal;font-weight:bold;font-stretch:normal;font-size:12px;line-height:125%;font-family:'Bitstream Vera Sans';text-align:start;writing-mode:lr-tb;text-anchor:start;fill:url(#linearGradient3346);fill-opacity:1;stroke:none;stroke-width:1px;stroke-linecap:butt;stroke-linejoin:miter;stroke-opacity:1"
       inkscape:connector-curvature="0" />
    <path
       inkscape:connector-curvature="0"
       id="rect2956"
       d="M 634.42092,354.7007 652.81533,372.2737 648.24703,375.54332 629.85262,357.97033 Z"
       style="fill:url(#radialGradient2959);fill-opacity:1;fill-rule:nonzero;stroke:none;stroke-width:0;stroke-linecap:round;stroke-linejoin:round;stroke-miterlimit:4;stroke-dasharray:none;stroke-dashoffset:4;stroke-opacity:1" />
    <path
       inkscape:connector-curvature="0"
       id="rect2961"
       d="M 701.94496,410.34936 681.99487,394.20558 678.45799,398.38214 698.40808,414.5259 Z"
       style="fill:url(#radialGradient2963);fill-opacity:1;fill-rule:nonzero;stroke:none;stroke-width:0;stroke-linecap:round;stroke-linejoin:round;stroke-miterlimit:4;stroke-dasharray:none;stroke-dashoffset:4;stroke-opacity:1" />
  </g>
</svg>
